<?xml version="1.0" encoding="UTF-8"?>
<svg id="_ボタン" data-name="ボタン" xmlns="http://www.w3.org/2000/svg" viewBox="0 0 80 80">
  <defs>
    <style>
      .cls-1 {
        fill: #e6e6e6;
      }

      .cls-2 {
        fill: #fff;
        fill-rule: evenodd;
      }
    </style>
  </defs>
  <circle class="cls-1" cx="40" cy="40" r="40"/>
  <path class="cls-2" d="M29.7709,14.3483h19.9951c4.1459,0,7.0727,3.4191,7.5338,7.5338l2.7431,24.3169c.1758,1.5513,.3751,3.1104,.5275,4.6617,.1055,1.059,.1797,2.0359,.211,2.9424,.0547,1.5044-.0078,2.7939-.2462,3.9076-.0039,.0195-.0117,.043-.0156,.0625-.2188,2.5595-2.3836,4.5914-5.0017,4.5914H24.3355c-1.4145,0-2.6923-.59-3.6106-1.5396-1.4732-1.5279-1.395-2.9151-1.4536-4.7399-.0313-.9105-.0625-1.8874-.0703-2.8682-.0156-2.2664,.168-3.7513,.3986-5.9708l2.6337-25.3641c.4298-4.1225,3.3957-7.5338,7.5377-7.5338h0Zm.5705,10.6286l-.0352,6.7758,6.7758,.0352,.7971,.0039-.5627-.5705-1.9655-1.9851c.1329-.125,.2657-.2462,.4103-.3634,.1876-.1524,.3829-.2931,.5861-.4259h0c1.0433-.6721,2.2859-1.059,3.6184-1.055h0c1.8248,.0078,3.4778,.7581,4.6696,1.9616,1.1918,1.2035,1.9264,2.8604,1.9147,4.6852h0v.0078h0c-.0078,1.8287-.7581,3.4777-1.9616,4.6696-1.2035,1.1918-2.8604,1.9264-4.6852,1.9147h-.0156c-.6369-.0039-1.2739-.0977-1.8835-.2853h0c-.3361-.1016-.6682-.2345-.9847-.3869-1.6138-.7893-2.8604-2.2234-3.4074-3.9623l-.0742-.2305-4.0678-.0156,.0782,.3986v.0117h0c.1329,.6643,.34,1.3169,.5979,1.9421h0c.2579,.6135,.5783,1.2074,.9456,1.7623,1.8874,2.8447,5.115,4.7282,8.7843,4.7438h0c2.9268,.0156,5.5839-1.1606,7.5065-3.0675h0c1.9225-1.9069,3.1261-4.5484,3.1378-7.4713h0v-.0078h0c.0156-2.9268-1.1606-5.58-3.0675-7.5065h0c-1.903-1.9225-4.5445-3.1222-7.4674-3.1378h-.0117c-1.5044-.0078-2.9346,.3009-4.2319,.8597-.211,.0899-.4181,.1876-.6213,.2931-.9495,.4845-1.8131,1.1058-2.5673,1.8405l-1.6529-1.6646-.5627-.5705,.0039,.8011h0Zm29.092,29.3889c0-.2892-.0078-.59-.0195-.8987-.0508-1.3481-.1993-2.5243-.4064-4.3062-.34-.1329-.7073-.2032-1.0902-.2032H22.1199c-.4806,0-.9339,.1133-1.3364,.3126-.2188,1.524-.2188,3.0362-.1758,4.8298,.9105-1.2973,2.4149-1.7701,4.1108-1.7701h30.4284c1.7545,0,3.3762,.5432,4.2866,2.0359h0Zm-34.3828,2.1296h7.7136v2.7392h-7.7136v-2.7392h0Z"/>
</svg>