<?xml version="1.0" encoding="UTF-8"?>
<svg id="_ボタン" data-name="ボタン" xmlns="http://www.w3.org/2000/svg" viewBox="0 0 80 80">
  <defs>
    <style>
      .cls-1 {
        fill: #e6e6e6;
      }

      .cls-2 {
        fill: #fff;
        fill-rule: evenodd;
      }
    </style>
  </defs>
  <circle class="cls-1" cx="40" cy="40" r="40"/>
  <path class="cls-2" d="M55.4027,43.7341c3.2518,0,6.1978,1.3217,8.3332,3.456,2.1425,2.1333,3.4641,5.0844,3.4641,8.3403s-1.3217,6.208-3.456,8.3413l-.1341,.1239c-2.1252,2.0612-5.0194,3.3321-8.2072,3.3321-3.2569,0-6.207-1.3217-8.3403-3.456-2.1343-2.1333-3.456-5.0844-3.456-8.3413s1.3217-6.207,3.456-8.3403c2.1333-2.1344,5.0834-3.456,8.3403-3.456h0Zm-8.3058-24.5526v5.504c.1006,1.3135,.5587,2.3457,1.3633,3.0324,.833,.7121,2.0785,1.1114,3.7272,1.1408l3.8522-.0041-8.9427-9.6731h0Zm9.2658,12.2403l-4.1956-.0041c-2.2847-.0356-4.0848-.6502-5.374-1.7514-1.344-1.149-2.1008-2.7784-2.2542-4.798l-.0112-.1768v-6.8094h-15.741c-1.0504,0-2.0063,.4297-2.6971,1.1205-.6908,.6908-1.1205,1.6467-1.1205,2.6971V55.8829c0,1.0463,.4317,2.0023,1.1236,2.6941,.6908,.6908,1.6477,1.1225,2.6941,1.1225h12.1305c.258,.893,.5963,1.7524,1.0077,2.5691h-13.1383c-1.7554,0-3.3544-.7192-4.5115-1.8753-1.1561-1.1571-1.8753-2.755-1.8753-4.5105V21.6998c0-1.7534,.7192-3.3503,1.8743-4.5064,1.1622-1.1611,2.7591-1.8804,4.5125-1.8804h17.664c.4175,0,.7883,.1991,1.023,.5079l11.1126,12.0218c.2276,.2469,.3393,.5577,.3393,.8686l.003,12.162c-.831-.2001-1.6884-.3302-2.5661-.385v-9.0667Zm-23.3407,5.5355c-.7091,0-1.2841-.575-1.2841-1.2841,0-.7101,.575-1.2851,1.2841-1.2851h15.2879c.7091,0,1.2851,.575,1.2851,1.2851,0,.7091-.576,1.2841-1.2851,1.2841h-15.2879Zm0,7.3448c-.7091,0-1.2841-.575-1.2841-1.2851,0-.7091,.575-1.2841,1.2841-1.2841h14.4782c.3769,0,.7162,.1625,.9519,.4216-1.1197,.5837-2.1619,1.3051-3.1025,2.1476h-12.3276Zm0,7.3448c-.7091,0-1.2841-.575-1.2841-1.2851,0-.7091,.575-1.2841,1.2841-1.2841h8.7568c-.3881,.8178-.706,1.6772-.9437,2.5691h-7.8131Zm21.8565-2.3243c.7374,.0002,1.4675,.1459,2.1486,.4287,.6918,.2844,1.3145,.704,1.8316,1.2221,.5191,.5171,.9377,1.1378,1.2231,1.8255,.2743,.6664,.4277,1.3958,.4277,2.1577,0,.5547-.0813,1.0961-.2347,1.6081-.1243,.419-.2979,.8217-.5171,1.1997l1.6965,1.8662c.1514,.1656,.1402,.4257-.0254,.578l-1.5594,1.4243c-.1666,.1512-.4238,.1403-.577-.0244l-1.5949-1.7788c-.375,.2175-.7738,.3911-1.1886,.5171l-.0152,.0041c-.5241,.1568-1.0682,.2365-1.6152,.2367-.7558,0-1.4852-.1544-2.1506-.4277-.6841-.2842-1.3062-.6989-1.8316-1.2211-.524-.5231-.9396-1.1445-1.2231-1.8286-.2827-.6828-.428-1.4146-.4277-2.1537,0-.7568,.1534-1.4852,.4277-2.1516,.2839-.6844,.6991-1.3067,1.2221-1.8316,.5181-.5181,1.1378-.9377,1.8265-1.2221,.6836-.2837,1.4166-.4294,2.1567-.4287h0Zm2.4869,3.1451c-.3278-.3277-.7163-.5882-1.1439-.767l-.0193-.0081c-.4205-.17-.8701-.257-1.3237-.256-.4795,0-.9346,.0955-1.345,.2631-.4274,.1795-.8159,.4404-1.1439,.768-.6611,.6594-1.0322,1.5551-1.0311,2.4889,0,.4785,.0965,.9346,.2631,1.344,.1818,.4297,.4439,.8198,.767,1.1429,.3271,.3251,.7142,.5902,1.1429,.765,.4135,.1707,.8686,.2662,1.347,.2662s.9336-.0955,1.344-.2662c.4287-.1757,.8188-.4419,1.1429-.765,.323-.323,.5892-.7131,.765-1.1429,.1707-.4104,.2672-.8665,.2672-1.344,0-.4795-.0965-.9346-.2672-1.346l-.0071-.0203c-.1768-.4196-.4368-.8015-.7578-1.1225h0Z"/>
</svg>