<?xml version="1.0" encoding="UTF-8"?>
<svg id="_ボタン" data-name="ボタン" xmlns="http://www.w3.org/2000/svg" viewBox="0 0 80 80">
  <defs>
    <style>
      .cls-1 {
        fill: #e6e6e6;
        fill-rule: evenodd;
      }
    </style>
  </defs>
  <path class="cls-1" d="M39.9886,0c22.0914-.0063,40.0051,17.8972,40.0114,39.9886,.0063,22.0914-17.8972,40.0051-39.9886,40.0114C17.92,80.0064,.0063,62.1029,0,40.0115-.003,29.3985,4.2118,19.2193,11.7165,11.715,19.2049,4.2016,29.3807-.0149,39.9886,0Zm-13.1728,34.9626h.6508v-2.1217c-.004-3.3933,1.3015-6.6572,3.6446-9.1116,4.5857-4.8848,12.2631-5.1273,17.1479-.5416,.1862,.1748,.3668,.3554,.5416,.5416,2.3431,2.4544,3.6487,5.7184,3.6446,9.1116v2.1217h.6834c1.1261,0,2.04,.911,2.0436,2.0371v20.1432c-.0036,1.1272-.9164,2.04-2.0436,2.0436H26.8158c-1.1261-.0036-2.0371-.9175-2.0371-2.0436v-20.1432c0-1.1251,.912-2.0371,2.0371-2.0371h0Zm4.5558,0h17.247v-2.1217c.0096-2.3971-.9067-4.7054-2.5578-6.4432-3.1235-3.3536-8.3743-3.5401-11.7279-.4166-.1438,.1339-.2827,.2729-.4166,.4166-1.6534,1.7364-2.5701,4.0456-2.5578,6.4432v2.1217h.013Zm7.029,13.0231l-2.1477,5.5581h7.4715l-1.9525-5.6297c1.9234-.9757,2.6916-3.3258,1.716-5.2491-.9757-1.9233-3.3258-2.6916-5.2491-1.7159-1.9233,.9757-2.6916,3.3258-1.7159,5.2491,.4008,.7901,1.0584,1.4205,1.8648,1.7875h.013Z"/>
</svg>