<?xml version="1.0" encoding="UTF-8"?>
<svg id="img" xmlns="http://www.w3.org/2000/svg" viewBox="0 0 135 195">
  <defs>
    <style>
      .cls-1 {
        fill: #e95037;
      }

      .cls-2 {
        fill: #fff;
      }

      .cls-3 {
        fill: #fcd03e;
      }

      .cls-4 {
        fill: #b9992c;
      }

      .cls-5 {
        fill: #8bd1f4;
      }

      .cls-6 {
        fill: #c6a430;
      }

      .cls-7 {
        fill: #231815;
      }
    </style>
  </defs>
  <path class="cls-7" d="M121.8007,105.5747c-.4369,1.7475-.8203,3.3888-1.2646,5.0134-.2233,.8164,.1802,1.4321,.5243,2.0652,1.0069,1.8525,1.9687,3.7236,2.5851,5.7493,1.0817,3.5547,1.0302,7.162,.3583,10.7652-.2638,1.4144-.1428,2.7992-.0883,4.2,.2453,6.3065,.4569,12.6154-.4975,18.8851-.1463,.9609,.0211,1.7601,.3719,2.6116,2.2209,5.3902,3.8051,10.9966,5.5912,16.5347,.1589,.4926,.1822,1.1545,.9956,1.1376,.1167-.0025,.3485,.3133,.3423,.4747-.0361,.9348,.6872,1.4042,1.168,2.0222,2.2234,2.8583,2.0449,7.3833-.405,10.0357-2.3313,2.524-5.0102,4.5077-8.3884,5.422-.5197,.1407-1.0354,.2064-1.5618,.2089-2.3759,.0114-3.7457-1.8921-2.9828-4.142,.5274-1.5553,1.5081-2.8539,2.4496-4.1623,.5837-.8112,.9015-1.3216,.1572-2.4145-1.4745-2.1651-2.599-4.573-3.8063-6.9125-.2928-.5673-.5487-.6691-1.1297-.4874-.4114,.1287-.5218,.2837-.555,.6992-.3058,3.8249-.5468,7.6572-1.0898,11.4587-.1754,1.228,.2283,2.409,.0929,3.6566-.3142,2.8936-2.405,5.8143-6.577,6.0799-3.5111,.2235-6.8511-.5436-10.1382-1.6191-1.8438-.6033-3.0462-2.1469-3.0344-3.6642,.0139-1.7936,1.4587-3.6921,3.2895-4.2337,1.2854-.3802,2.6238-.5199,3.9538-.6258,.5584-.0445,.7861-.1244,.7688-.7523-.1636-5.9648,.4806-11.9011,.6642-17.8543,.0385-1.2482-.5994-2.1447-1.7951-2.4961-.3333-.0979-.7005-.1953-.9609-.4058-.8828-.7135-1.6717-1.5116-2.6678-2.1225-.7963-.4884-.9339-1.6576-1.5099-2.4671-.5431-.7633-1.0107-1.0399-1.9092-.9852-.9981,.0608-1.9381-.3061-2.327-1.3094-.4069-1.0498-.0567-2.0028,.7538-2.7777,.1738-.1662,.3488-.3313,.5516-.5238-5.4205-7.3073-10.8748-14.5638-16.0121-22.0506-1.4539-2.1189-3.0425-4.1417-4.6709-6.1318-.3155-.3856-.6137-.5296-1.1459-.5095-1.4786,.056-2.7518-.4573-3.698-1.661-1.0293-1.3095-1.9138-2.7271-2.4146-4.2996-.8298-2.6057-2.292-4.8776-3.5787-7.24-2.4199-4.4431-5.5977-8.4315-7.8241-12.9967-1.1369-2.3311-2.3673-4.6164-3.5247-6.9378-.2632-.5278-.5282-1.1115-.5617-1.6831-.0457-.7784-.4399-.7065-.9615-.6322-4.7276,.6732-9.5164,1.075-14.2185,.328-7.2323-1.149-14.0082-3.5465-19.48-8.7781-3.6069-3.4485-6.945-7.1063-9.5273-11.3937-2.9553-4.9066-4.5155-10.3202-5.5985-15.8915-.6235-3.2074-.5977-6.4875-.3497-9.6895,.1499-1.9357-.121-3.7968-.0959-5.6922,.0963-7.2678,1.9037-14.0233,5.8061-20.183,1.281-2.0221,2.6675-3.9715,4.1369-5.8625C14.3525,5.7459,20.3464,2.9278,27.0035,1.2927,33.1622-.2199,39.4039-.2317,45.6905,.3765c6.2476,.6045,11.9833,2.5578,17.2444,5.9605,4.3916,2.8403,7.347,6.8854,9.7638,11.4238,2.4931,4.6817,4.5744,9.4963,6.1775,14.5818,1.6053,5.0924,2.1964,10.2261,1.9948,15.4769-.2566,6.6821-1.685,13.157-3.9162,19.4575-.3299,.9314-.7251,1.8323-1.2315,2.6744-2.3587,3.9221-4.9597,7.6801-7.7558,11.3021-.8015,1.0382-1.7426,1.9481-2.9058,2.5762-.4813,.2599-.4699,.4824-.1809,.878,2.4164,3.3082,4.2094,6.9701,5.9953,10.6344,1.0633,2.1815,2.3952,4.217,3.5008,6.3684,1.6364,3.1844,4.2927,5.5336,6.446,8.2915,.4983,.6381,1.1152,1.2172,1.4711,1.927,1.3393,2.6714,3.7468,3.9127,6.35,4.9032,1.8009,.6852,3.6353,1.2821,5.436,1.9677,.496,.1889,.7876,.0673,1.0962-.2912,1.5398-1.7886,3.0301-3.6261,4.9119-5.0842,.2138-.1657,.2993-.3453,.2313-.6351-.5813-2.4779-.1512-4.9746-.0861-7.4607,.0469-1.7938,.3198-3.5815,.3736-5.3754,.03-.9995-.2865-1.9888-.3382-3.0043-.4417-8.6605,5.3316-17.1003,13.3434-19.3551,2.3426-.6593,4.7421-1.0078,7.1992-.6237,1.2777,.1997,2.3001,.797,3.1912,1.7009,2.6056,2.6426,3.9903,5.8541,4.2795,9.5111,.2544,3.2174,.0052,6.4023-1.2398,9.4369-.1726,.4208-.1348,.7523,.1007,1.1642,.9707,1.6984,.7866,3.0943-.5518,4.5158-1.0278,1.0916-2.3203,1.8114-3.614,2.5316-.4498,.2504-.7928,.1815-1.1762-.2559ZM37.7538,1.0576c-2.065,.1464-3.967,.1811-5.8575,.4303-5.4997,.7249-10.668,2.3695-15.3992,5.3312-3.6277,2.271-6.0296,5.6459-8.4409,9.0444C3.6107,22.1289,1.2397,29.1112,1.2029,36.76c-.0282,5.8542,.9278,11.6301,2.5055,17.284,2.6053,9.3367,7.747,16.6972,16.5393,21.2063,2.6603,1.3643,5.5084,2.2572,8.3017,3.2896,2.7354,1.011,5.5323,1.3591,8.3988,.804,2.1324-.413,4.2289-1.0193,6.3672-1.391,2.5268-.4392,5.128-.5213,7.6145-1.1078,5.2747-1.2441,9.691-4.3628,13.8966-7.5055,5.3472-3.9958,8.7074-9.6544,10.3691-16.1253,1.8619-7.2503,1.9707-14.6328,.7041-22.0041-.81-4.7141-1.6661-9.4505-5.1815-13.113-.1946-.2027-.3002-.5179-.1134-.6596,.6223-.4723,.1729-.8446-.062-1.2215-.6321-1.014-1.2397-2.0482-1.9416-3.0128-3.6692-5.0422-8.818-7.9967-14.5555-9.9818-5.3161-1.8393-10.8794-2.1345-16.2918-2.1637Zm21.4429,81.2026c-.8974-.0058-1.6718,.0717-2.4134,.2983-2.0272,.6194-3.8204,1.5912-5.0258,3.431-.4024,.6142,.064,1.4203-.1609,1.8098-.5373,.9306-.1815,1.6676,.1713,2.3719,1.6969,3.3878,3.3686,6.7896,5.2405,10.0877,2.3057,4.0623,5.1916,7.7688,7.2983,11.9573,.287,.5706,1.0122,.7356,1.7601,.4694,2.1899-.7795,2.8553-.4302,3.5987,1.7718,.069,.2043-.0159,.4314,.3852,.4764,1.8724,.2105,2.0484,.3953,2.3257,2.2617,.0557,.3747,.1074,.5584,.5373,.7214,2.0107,.7623,2.6573,2.529,1.3879,4.295-.7327,1.0192-.577,1.6039,.22,2.3061,.0514,.0453,.0822,.1137,.1237,.1706,6.4805,8.899,12.9678,17.7931,19.4246,26.7093,.3675,.5075,.5355,.5361,1.0005,.1595,1.4501-1.1746,3.015-2.1872,4.6489-3.09,.6039-.3337,1.2469-.5859,1.0854-1.5162-.0749-.4315,.3227-.7564,.6472-1.0314,.9516-.8062,1.6183-1.8474,2.3803-2.8134,.3064-.3885,.1616-.5319-.1023-.8248-1.3431-1.4912-2.7626-2.9307-3.9559-4.5366-4.2974-5.7833-8.1198-11.9058-12.8737-17.3693-2.6919-3.0937-4.5859-6.8179-7.1788-10.0288-2.4514-3.0357-5.5161-5.5676-7.08-9.3499-.914-2.2104-2.3127-4.2425-3.3647-6.4238-1.6954-3.5157-3.6292-6.883-5.8488-10.1054-1.1172-1.622-2.5022-2.2592-4.2313-2.2078Zm26.649,34.5913c1.6628,2.9319,3.9397,5.3805,6.087,7.9292,.0873,.1036,.1991,.2239,.3206,.2556,1.4762,.3846,2.7435,1.2315,4.1012,1.872,.738,.3482,1.2179,.2318,1.7649-.3221,.8209-.8312,1.3832-1.9597,2.2858-2.6068,1.1294-.8098,.9932-1.8692,1.2025-2.9213,.0992-.4988-.2856-1.4503,.6986-1.3118,.8184,.1152,.392,.9464,.351,1.4232-.4835,5.6244-.6525,11.2578-.5827,16.9004,.0043,.3487-.015,.6808,.2612,.9809,.8168,.8875,1.6038,1.8024,2.4295,2.7372,4.1308-5.5438,6.6612-11.6721,7.6417-18.448,.0703-.486-.2353-1.3782,.6473-1.2705,.9033,.1102,.4552,.9871,.3922,1.4727-1.1274,8.6883-5.1079,16.0483-10.666,22.6532-.7705,.9156-.9765,1.6365-.2642,2.6562,1.4349,2.0538,3.0004,3.9989,5.2661,5.2387,2.7991,1.5317,4.2128,.8602,5.9688-1.2902,2.7185-3.329,4.739-7.1315,6.1173-11.2339,1.4004-4.168,2.2795-8.4666,3.1042-12.7744,.9891-5.167,.2634-10.0712-2.3646-14.6667-.5597-.9787-1.0549-1.9942-1.5918-3.0155-.5694,.3183-.8606,.9006-1.23,1.3984-1.7334,2.3357-3.7324,4.4136-6.0602,6.153-.8579,.641-1.7873,1.3419-2.9789,.6721-.1182-.0664-.2781-.1756-.3201,.0261-.1785,.856-1.0902,1.4236-.9925,2.3595,.2083,1.9947,.5306,3.9785,.6986,5.9759,.1138,1.3527,.671,2.7163,.1716,4.0718-.5347,1.4513-1.297,2.8041-2.1454,4.0954-.6189,.9421-1.4243,.8927-1.7505-.1614-.6445-2.083-1.1791-4.2113-.682-6.4221,.5483-2.4387,.8667-4.9146,1.2493-7.3803,.043-.2774,.0905-.5364-.1231-.7954-.3587-.4348-.3851-.9849-.3487-1.5092,.0438-.6315,.0674-1.0817-.8289-.9205-.6707,.1206-1.0726-.3938-1.3821-.945-.6106-1.0873-.9566-2.2852-1.3776-3.5148-.2025,.1476-.316,.2245-.4233,.3093-1.6997,1.3446-3.0462,3.027-4.4369,4.6645-.6748,.7946-1.3965,1.0045-2.4243,.6304-2.5972-.9453-5.2552-1.7268-7.7855-2.9656ZM1.4761,49.5428c-.0915,.0094-.1829,.0188-.2744,.0282,.068,.6333,.1022,1.2724,.2091,1.8992,1.3284,7.7924,3.7594,15.1221,8.9363,21.3037,3.4047,4.0654,6.9445,8.0074,11.652,10.606,8.4179,4.6466,17.4685,5.4088,26.8245,4.1525,.9791-.1315,1.5666-.4175,1.7441-1.4848,.1133-.6817,.6218-1.2532,1.1272-1.755,2.4891-2.4712,5.4979-3.4455,8.9527-3.0188,.9459,.1168,1.9475,.4161,2.5258,1.1845,.7243,.9622,1.3077,.5677,1.9447,.0515,.5186-.4202,1.0033-.887,1.4706-1.3648,1.387-1.4179,2.4265-3.1034,3.5601-4.7134,2.9541-4.1958,5.8123-8.3973,7.1016-13.5241,1.8924-7.5251,3.2287-15.0443,2.2158-22.8499-.3366-2.594-.7594-5.1259-1.7758-7.5377-.0872-.2068-.0339-.5782-.5101-.5845,.6983,3.7796,.6212,7.5697,.5048,11.3425-.1792,5.8071-1.1673,11.4434-3.9282,16.6769-2.3893,4.5292-5.4088,8.5306-9.6992,11.3573-3.0144,1.986-6.161,3.7911-9.3572,5.4941-2.6291,1.4009-5.601,1.3756-8.4013,2.0324-1.8163,.426-3.7639,.4062-5.6142,.856-2.814,.6842-5.6917,1.456-8.5511,.8517-6.0132-1.271-11.7946-3.332-16.7902-6.9957-5.9325-4.3509-9.8905-10.201-12.0927-17.2361-.698-2.2297-1.2293-4.5019-1.7749-6.7718Zm107.3945,39.0864c-2.0247,1.6384-3.6924,3.3712-5.6794,4.7051-.5624,.3775-.8048,.8594-.8757,1.4603-.582,4.9324-1.0667,9.8722-1.1661,14.8435-.0151,.7559,.2022,1.3637,.7232,1.895,1.1596,1.1825,2.2838,2.4008,3.4678,3.5581,1.4086,1.3769,1.5289,1.3384,3.2938,.4822,3.7326-1.8109,7.1304-4.2061,10.7978-6.1263,.3668-.1921,.3643-.4545,.4404-.7526,1.068-4.1823,2.2315-8.3469,2.8327-12.6292,.3878-2.7623-.0398-5.4429-1.1841-8.0572-1.2035,1.0095-2.2199,2.1117-3.5726,2.7583-1.1587,.5538-1.7359,.1704-1.7364-1.1046-.0003-.7153,0-1.4306,0-2.2794-.643,.5384-1.141,.9784-1.6629,1.3879-1.297,1.0177-2.5169,2.1613-4.1249,2.6976-.9438,.3148-1.5024-.0766-1.5491-1.067-.0246-.5236-.0044-1.0492-.0044-1.7717Zm-7.2577,4.2862c.5593-.1093,.8668-.4049,1.2035-.6446,1.6962-1.2074,3.158-2.6952,4.7757-3.996,.5226-.4203,.9664-1.2263,1.7763-.8402,.8144,.3881,.5431,1.2798,.6254,1.9896,.0352,.3039-.1879,.7209,.1169,.8882,.3371,.185,.6419-.1617,.9354-.3413,1.5061-.9218,2.8398-2.0701,4.1904-3.1958,.4554-.3796,.8927-.9256,1.5574-.6091,.6636,.316,.5121,1.0122,.5228,1.5986,.0119,.6478,.0027,1.296,.0027,2.0807,1.3295-.6575,2.2452-1.5786,3.2021-2.4389,1.0866-.9769,1.5771-.8927,2.1364,.4916,.9826,2.4317,1.4687,4.9475,1.2391,7.5887-.054,.6209-.3368,1.225-.187,1.8694,.5427-.0014,1.0632-.2748,1.5787-.0627,.5734,.236,.7456-.0541,.9214-.5355,.9974-2.7308,1.2205-5.5633,.9936-8.4197-.276-3.4734-1.5827-6.5255-4.0968-9.0084-.6976-.6889-1.4973-1.1241-2.4791-1.2748-2.5676-.3941-5.0712-.0074-7.4703,.8217-5.1901,1.7938-8.3625,5.7284-10.6587,10.4937-.5165,1.0719-.7902,2.2387-.8859,3.5449Zm2.2928,70.3625c.1216,.1884,.2015,.3387,.3057,.4696,1.4883,1.8716,3.0055,3.7161,4.5849,5.5152,1.273,1.4501,2.7733,2.1804,4.656,2.3072,1.9074,.1284,3.7633,.0747,5.1744-1.454,2.8857-3.1262,3.7881-7.8458,.7953-11.7172-1.4027-1.8144-2.9337-3.5036-4.5652-5.144-.5941,1.015-1.5687,1.5638-2.5234,2.1455-.9811,.5978-2.0089,1.132-2.2758,2.4456-.0995,.4895-.4471,.9515-.7556,1.3716-1.3749,1.8724-3.0933,3.3107-5.3963,4.0605Zm.7875,2.9702c-.2265,4.1398-.4642,8.1029-.65,12.0685-.0758,1.6178,.0346,3.2458-.0753,4.8599-.0977,1.4349,.6659,2.2268,1.7899,2.7718,1.752,.8494,3.5811,1.1403,5.5291,.6996,2.0164-.4562,2.0274-.4059,2.2436-2.3788,.0153-.1399,.0513-.2775,.0646-.4175,.3254-3.432,.6388-6.8651,.9819-10.2953,.0682-.6819-.134-.9028-.8394-.9072-2.2899-.0144-4.2385-.7855-5.7217-2.6375-1.0086-1.2594-2.1338-2.4253-3.3227-3.7635Zm12.6726-11.9892c1.4265,1.5895,2.6925,3.0302,3.7113,4.671,2.6353,4.2443,1.0155,9.9211-2.4588,12.6043-.4582,.3539-.5485,.5983-.2712,1.1031,1.2322,2.2426,2.4338,4.5021,3.6389,6.7596,.2364,.4428,.5643,.6412,1.0824,.6857,3.0502,.262,5.8832-1.8393,6.466-4.8402,.0457-.2351,.1126-.4773-.0259-.7178-.9885-1.717-1.49-3.6214-2.0466-5.4958-1.4266-4.8037-2.9846-9.5603-4.8749-14.2033-.1371-.3367-.103-.9326-.7636-.7511-1.3853,.3808-2.7963,.1584-4.4577,.1845Zm-7.2231,1.9903c-1.6106-.5374-3.0779-1.1297-4.3572-2.1428-1.6492-1.3062-2.9735-2.9005-4.155-4.6148-.3382-.4908-.5867-.5551-1.075-.2681-2.1261,1.2495-4.2135,2.5514-6.0439,4.222-.6183,.5643-1.4799,1.1123-1.0407,2.0873,.3828,.8498,1.3173,.6797,2.0776,.6166,.7109-.0591,1.1239,.2111,1.5819,.7653,1.0249,1.2403,1.2397,3.1763,3.1245,3.6979,.16,.0443,.2569,.3194,.3816,.4884,.7895,1.0705,1.7576,1.4595,3.0469,1.039,2.5353-.8269,4.3779-2.472,5.4328-4.9401,.1985-.4644,.3188-.9287,1.0266-.9506Zm-4.2847,37.1665c5.1139,.0239,7.2084-1.6009,7.7166-5.2798,.1179-.8535-.0326-.9493-.8315-.709-3.0503,.9177-5.9279,.6079-8.6675-1.1612-.4737-.3059-.9806-.8918-1.5923-.8437-1.4978,.1177-3.0279,.1686-4.434,.7906-1.1587,.5126-2.1636,2.0003-2.0222,3.0976,.1639,1.2718,1.008,2.0672,2.1802,2.4711,2.7321,.9414,5.5305,1.5699,7.6506,1.6344Zm24.8337-18.017c-.0904,.1678-.1564,.2546-.1872,.3525-1.1039,3.5109-3.2145,5.1824-6.8872,5.4366-.2505,.0173-.4801-.0059-.6428,.2487-1.1875,1.8589-2.7336,3.5016-3.4239,5.6597-.3713,1.1609,.2707,2.3157,1.4063,2.4774,.5892,.0839,1.1875,.0598,1.7801-.1044,3.303-.9152,5.9629-2.8345,8.1436-5.3981,2.0854-2.4516,1.9574-6.3762-.1889-8.6725Zm-15.1074-22.9262c.4907-.2764,.8506-.064,1.1689,.1176,1.476,.8422,3.0288,.7103,4.6104,.4471,.7104-.1182,.9494-.4843,1.0554-1.1934,.6591-4.4099,.5615-8.8489,.592-13.2835,.0065-.9403,.0879-1.8965-.3932-2.9933-1.2056,6.195-3.5477,11.7356-7.0335,16.9054Zm-21.8058-25.5671c2.2974,3.5302,4.4067,7.1401,7.2384,10.6161-.1611-4.4384,.1375-8.5262,.2503-12.8716-1.0158,1.1432-1.7785,2.1767-2.7277,3.0382-.6716,.6094-1.3672,.7739-2.2082,.361-.8365-.4107-1.7007-.7648-2.5528-1.1437Zm-22.195-4.0402c.441,.176,.7657-.2485,1.1011-.4106,.818-.3954,1.1202-1.278,1.1269-2.1234,.0053-.6633-.5489-1.2704-1.1727-1.3354-1.2328-.1285-1.4483-.7694-1.4207-1.8476,.0284-1.1062-.2967-1.2815-1.324-.9865-.9444,.2711-1.1891,.0958-1.2483-.8941-.1127-1.8856-.9648-2.3325-2.6372-1.4203-.3375,.1841-.3498,.3872-.2633,.681,.7164,2.4315,1.6108,4.7821,3.1286,6.847,.6622,.9009,1.5471,1.4104,2.7095,1.49Zm34.7423-1.1268c-.0678-.0006-.1355-.0012-.2033-.0018-.0717,.3645-.1678,.726-.2111,1.0938-.2459,2.0923-.5334,4.1794-1.0586,6.2212-.5239,2.0366,.0139,3.9543,.4724,6.1266,.3803-.6675,.6287-1.1259,.8977-1.5719,.8931-1.4803,1.4482-2.9971,.9599-4.7849-.2279-.8346-.1677-1.7449-.273-2.6167-.1802-1.4905-.3879-2.9777-.584-4.4663Zm15.6409-16.6506c1.07-.5007,2.04-1.0504,2.9201-1.7396,.4122-.3228,.7988-.692,1.1399-1.0891,1.0012-1.1653,.71-2.9516-.5861-3.7531-.6184-.3824-2.0099-.0209-2.1572,.6099-.4602,1.9698-.8746,3.9503-1.3167,5.972Zm-5.9504,7.7505c-2.711,1.5457-5.4853,2.9468-8.2765,4.4475,.3976,.2958,.7157,.5146,1.0137,.7581,.5023,.4106,1.0038,.5925,1.62,.2009,2.2402-1.4239,4.0011-3.3423,5.6428-5.4064Zm-13.9734,.7365c.2377,1.252,.5466,2.3894,1.1164,3.4279,.1434,.2614,.2439,.6786,.6516,.5624,.6259-.1785,1.3179-.2354,1.911-.7408-1.4424-.9365-2.385-2.2986-3.6789-3.2494Zm3.562,5.4128c-.0007,.6057-.1067,1.35,.5552,1.317,.7355-.0366,1.1265-.7135,1.2185-1.4814,.084-.7015-.5077-.874-.9118-.915-.7941-.0805-.9487,.5089-.8618,1.0793Z"/>
  <path class="cls-3" d="M37.7538,1.0576c5.4124,.0292,10.9757,.3243,16.2918,2.1637,5.7375,1.9851,10.8863,4.9396,14.5555,9.9818,.7019,.9646,1.3095,1.9988,1.9416,3.0128,.235,.3769,.6843,.7492,.062,1.2215-.1867,.1417-.0812,.4569,.1134,.6596,3.5154,3.6626,4.3715,8.3989,5.1815,13.113,1.2666,7.3713,1.1578,14.7538-.7041,22.0041-1.6618,6.4709-5.022,12.1295-10.3691,16.1253-4.2055,3.1427-8.6219,6.2614-13.8966,7.5055-2.4865,.5865-5.0876,.6686-7.6145,1.1078-2.1383,.3716-4.2349,.978-6.3672,1.391-2.8665,.5551-5.6635,.207-8.3988-.804-2.7933-1.0324-5.6414-1.9252-8.3017-3.2896-8.7923-4.509-13.9339-11.8696-16.5393-21.2063-1.5777-5.6539-2.5336-11.4298-2.5055-17.284,.0368-7.6487,2.4078-14.6311,6.8533-20.8965,2.4113-3.3985,4.8133-6.7734,8.4409-9.0444,4.7312-2.9618,9.8995-4.6063,15.3992-5.3312,1.8905-.2492,3.7925-.284,5.8575-.4303ZM7.657,38.1456c.0558,5.0058,.0311,9.1092,.9756,13.1113,1.0109,4.2834,3.2539,8.042,5.3147,11.8756,1.7304,3.2188,4.278,5.4354,7.6961,6.6797,.2634,.0959,.5279,.1922,.7823,.3091,4.9951,2.296,10.1741,3.6406,15.7319,3.1218,1.5133-.1413,3.022,.0502,4.5159,.2978,1.1023,.1827,2.1821,.1234,3.2252-.2582,2.441-.8931,4.8392-1.9136,6.9866-3.3824,6.2621-4.2833,11.2257-9.7857,15.0425-16.3325,1.7776-3.0489,2.85-6.3644,3.2207-9.8398,.6355-5.959,.2156-11.8745-1.2226-17.7114-1.0985-4.4583-3.1877-8.2198-7.1278-10.8106-1.9677-1.2939-3.8498-2.7179-5.7736-4.0788-2.0762-1.4687-4.2917-2.6099-6.7585-3.3365-5.3926-1.5884-10.8661-2.183-16.4759-1.898-3.7923,.1926-7.3292,1.1177-10.6639,2.9244-4.2892,2.3239-7.4032,5.8832-10.3726,9.6281-1.6983,2.1418-3.2533,4.3309-3.7388,7.0937-.7862,4.4745-1.5723,8.9501-1.3579,12.6067Z"/>
  <path class="cls-3" d="M59.1968,82.2602c1.7291-.0514,3.1141,.5858,4.2313,2.2078,2.2196,3.2224,4.1534,6.5897,5.8488,10.1054,1.0519,2.1813,2.4507,4.2134,3.3647,6.4238,1.5639,3.7822,4.6286,6.3142,7.08,9.3499,2.5929,3.2109,4.4869,6.9351,7.1788,10.0288,4.7539,5.4635,8.5763,11.5859,12.8737,17.3693,1.1933,1.6059,2.6128,3.0453,3.9559,4.5366,.2639,.293,.4087,.4363,.1023,.8248-.7619,.966-1.4287,2.0073-2.3803,2.8134-.3245,.2749-.7221,.5999-.6472,1.0314,.1615,.9303-.4815,1.1825-1.0854,1.5162-1.6339,.9027-3.1988,1.9153-4.6489,3.09-.465,.3767-.633,.348-1.0005-.1595-6.4567-8.9162-12.944-17.8103-19.4246-26.7093-.0414-.0569-.0722-.1253-.1237-.1706-.797-.7022-.9526-1.2869-.22-2.3061,1.2694-1.766,.6228-3.5327-1.3879-4.295-.4299-.163-.4816-.3467-.5373-.7214-.2773-1.8664-.4533-2.0512-2.3257-2.2617-.4011-.0451-.3163-.2722-.3852-.4764-.7434-2.202-1.4088-2.5513-3.5987-1.7718-.7479,.2662-1.4731,.1012-1.7601-.4694-2.1067-4.1885-4.9926-7.895-7.2983-11.9573-1.8719-3.2981-3.5436-6.6999-5.2405-10.0877-.3528-.7043-.7086-1.4413-.1713-2.3719,.2249-.3895-.2415-1.1955,.1609-1.8098,1.2055-1.8398,2.9986-2.8116,5.0258-3.431,.7416-.2266,1.5159-.3041,2.4134-.2983Z"/>
  <path class="cls-2" d="M85.8458,116.8515c2.5303,1.2388,5.1884,2.0203,7.7855,2.9656,1.0279,.3741,1.7495,.1642,2.4243-.6304,1.3907-1.6375,2.7373-3.3199,4.4369-4.6645,.1073-.0849,.2208-.1618,.4233-.3093,.421,1.2295,.767,2.4274,1.3776,3.5148,.3096,.5512,.7115,1.0657,1.3821,.945,.8963-.1612,.8727,.289,.8289,.9205-.0364,.5243-.01,1.0744,.3487,1.5092,.2136,.259,.1662,.518,.1231,.7954-.3826,2.4658-.701,4.9417-1.2493,7.3803-.4971,2.2108,.0375,4.339,.682,6.4221,.3261,1.0541,1.1316,1.1034,1.7505,.1614,.8483-1.2913,1.6107-2.644,2.1454-4.0954,.4994-1.3555-.0578-2.719-.1716-4.0718-.168-1.9974-.4904-3.9813-.6986-5.9759-.0977-.9359,.814-1.5035,.9925-2.3595,.0421-.2016,.2019-.0925,.3201-.0261,1.1916,.6699,2.121-.031,2.9789-.6721,2.3278-1.7394,4.3268-3.8173,6.0602-6.153,.3694-.4978,.6606-1.0801,1.23-1.3984,.5369,1.0214,1.0321,2.0369,1.5918,3.0155,2.628,4.5955,3.3537,9.4997,2.3646,14.6667-.8247,4.3078-1.7038,8.6064-3.1042,12.7744-1.3783,4.1023-3.3988,7.9048-6.1173,11.2339-1.7561,2.1504-3.1697,2.8219-5.9688,1.2902-2.2657-1.2398-3.8312-3.1848-5.2661-5.2387-.7124-1.0197-.5063-1.7406,.2642-2.6562,5.5581-6.605,9.5386-13.9649,10.666-22.6532,.063-.4855,.5111-1.3625-.3922-1.4727-.8826-.1077-.577,.7845-.6473,1.2705-.9804,6.7759-3.5109,12.9042-7.6417,18.448-.8257-.9348-1.6127-1.8498-2.4295-2.7372-.2762-.3002-.2569-.6322-.2612-.9809-.0698-5.6425,.0992-11.276,.5827-16.9004,.041-.4767,.4674-1.308-.351-1.4232-.9842-.1385-.5994,.813-.6986,1.3118-.2093,1.0521-.0731,2.1115-1.2025,2.9213-.9025,.6471-1.4649,1.7756-2.2858,2.6068-.5471,.554-1.0269,.6703-1.7649,.3221-1.3577-.6405-2.625-1.4874-4.1012-1.872-.1215-.0317-.2333-.152-.3206-.2556-2.1472-2.5487-4.4241-4.9973-6.087-7.9292Z"/>
  <path class="cls-4" d="M1.4761,49.5428c.5456,2.2698,1.0769,4.542,1.7749,6.7718,2.2023,7.0351,6.1602,12.8852,12.0927,17.2361,4.9955,3.6636,10.777,5.7247,16.7902,6.9957,2.8593,.6043,5.7371-.1675,8.5511-.8517,1.8503-.4499,3.798-.43,5.6142-.856,2.8002-.6568,5.7721-.6316,8.4013-2.0324,3.1961-1.703,6.3427-3.5081,9.3572-5.4941,4.2904-2.8267,7.3099-6.8281,9.6992-11.3573,2.7609-5.2335,3.749-10.8698,3.9282-16.6769,.1164-3.7729,.1935-7.5629-.5048-11.3425,.4762,.0062,.423,.3777,.5101,.5845,1.0163,2.4119,1.4392,4.9438,1.7758,7.5377,1.0129,7.8055-.3235,15.3248-2.2158,22.8499-1.2893,5.1268-4.1475,9.3283-7.1016,13.5241-1.1335,1.61-2.1731,3.2954-3.5601,4.7134-.4674,.4778-.9521,.9445-1.4706,1.3648-.637,.5162-1.2204,.9107-1.9447-.0515-.5783-.7683-1.5799-1.0677-2.5258-1.1845-3.4547-.4266-6.4635,.5476-8.9527,3.0188-.5054,.5018-1.0139,1.0733-1.1272,1.755-.1775,1.0673-.765,1.3534-1.7441,1.4848-9.356,1.2563-18.4066,.4941-26.8245-4.1525-4.7075-2.5985-8.2473-6.5405-11.652-10.606-5.1769-6.1816-7.6078-13.5113-8.9363-21.3037-.1068-.6267-.1411-1.2658-.2091-1.8992,.0915-.0094,.1829-.0188,.2744-.0282Z"/>
  <path class="cls-2" d="M108.8706,88.6293c0,.7225-.0203,1.2482,.0044,1.7717,.0466,.9903,.6052,1.3818,1.5491,1.067,1.608-.5363,2.828-1.6799,4.1249-2.6976,.5219-.4095,1.0199-.8495,1.6629-1.3879,0,.8488-.0003,1.5641,0,2.2794,.0005,1.275,.5777,1.6584,1.7364,1.1046,1.3528-.6466,2.3691-1.7488,3.5726-2.7583,1.1443,2.6144,1.5719,5.2949,1.1841,8.0572-.6012,4.2824-1.7647,8.4469-2.8327,12.6292-.0761,.2981-.0736,.5605-.4404,.7526-3.6674,1.9203-7.0652,4.3154-10.7978,6.1263-1.7649,.8563-1.8852,.8948-3.2938-.4822-1.1839-1.1573-2.3082-2.3756-3.4678-3.5581-.521-.5313-.7383-1.1391-.7232-1.895,.0994-4.9713,.5841-9.9112,1.1661-14.8435,.0709-.6009,.3134-1.0828,.8757-1.4603,1.987-1.3339,3.6547-3.0667,5.6794-4.7051Zm-.7968,16.7509c1.2394,.004,2.2512-.2044,3.1764-.6723,.4636-.2345,1.2925-.4077,.9595-1.1199-.3849-.8232-.9613-.073-1.3878,.1258-2.0081,.9358-3.9626,.7491-5.1724-.5575-.2532-.2735-.456-.7336-.9197-.3571-.466,.3784-.1686,.7714,.1023,1.0936,.9317,1.1079,2.2143,1.4017,3.2417,1.4874Zm-.8444-6.1504c.1213-.0597,.261-.1052,.3737-.1875,.8789-.6417,1.764-1.276,2.6217-1.9453,.2829-.2208,.5012-.5658,.1674-.905-.3099-.3148-.6079-.1535-.9221,.0942-.7433,.5862-1.5153,1.1363-2.2818,1.6926-1.5802,1.1467-1.5256,1.839,.2264,2.7703,.2161,.1148,.4305,.2365,.6567,.3278,.3183,.1284,.6322,.1553,.7886-.2408,.1443-.3656-.0224-.6031-.3545-.7596-.4115-.194-.8391-.3639-1.276-.8465Zm8.0843-3.3652c.5674-.0867,.7737-.4727,.7951-.9665,.0205-.4709-.154-.8724-.7094-.8182-.408,.0397-.8772,.1262-.8852,.7039-.0077,.5571,.2634,.9223,.7995,1.0809Zm-9.2803-.0393c.3929-.0204,1.121-.8609,1.0572-1.2144-.074-.4099-.3025-.7543-.7771-.6511-.585,.1273-.8539,.5662-.8458,1.1523,.0054,.3922,.2198,.6407,.5656,.7131Z"/>
  <path class="cls-1" d="M101.6129,92.9155c.0957-1.3062,.3694-2.4729,.8859-3.5449,2.2962-4.7653,5.4686-8.6999,10.6587-10.4937,2.399-.8291,4.9026-1.2158,7.4703-.8217,.9819,.1507,1.7815,.5859,2.4791,1.2748,2.5141,2.4828,3.8208,5.5349,4.0968,9.0084,.227,2.8565,.0038,5.6889-.9936,8.4197-.1758,.4814-.3479,.7714-.9214,.5355-.5155-.2121-1.036,.0613-1.5787,.0627-.1499-.6443,.133-1.2484,.187-1.8694,.2296-2.6412-.2565-5.1571-1.2391-7.5887-.5594-1.3843-1.0498-1.4685-2.1364-.4916-.9568,.8603-1.8726,1.7814-3.2021,2.4389,0-.7847,.0092-1.4329-.0027-2.0807-.0108-.5864,.1407-1.2826-.5228-1.5986-.6647-.3165-1.102,.2295-1.5574,.6091-1.3506,1.1257-2.6843,2.274-4.1904,3.1958-.2935,.1796-.5984,.5263-.9354,.3413-.3048-.1673-.0817-.5843-.1169-.8882-.0823-.7098,.1889-1.6015-.6254-1.9896-.8099-.386-1.2536,.42-1.7763,.8402-1.6177,1.3008-3.0794,2.7886-4.7757,3.996-.3367,.2397-.6442,.5353-1.2035,.6446Z"/>
  <path class="cls-2" d="M103.9057,163.278c2.303-.7498,4.0213-2.1882,5.3963-4.0605,.3085-.4201,.6561-.8821,.7556-1.3716,.2669-1.3136,1.2947-1.8479,2.2758-2.4456,.9548-.5817,1.9294-1.1305,2.5234-2.1455,1.6315,1.6404,3.1624,3.3296,4.5652,5.144,2.9928,3.8713,2.0904,8.5909-.7953,11.7172-1.4111,1.5287-3.267,1.5824-5.1744,1.454-1.8827-.1268-3.383-.857-4.656-2.3072-1.5794-1.7991-3.0966-3.6436-4.5849-5.5152-.1042-.131-.1841-.2813-.3057-.4696Z"/>
  <path class="cls-3" d="M104.6932,166.2482c1.1889,1.3381,2.3141,2.5041,3.3227,3.7635,1.4833,1.852,3.4318,2.6231,5.7217,2.6375,.7054,.0044,.9076,.2254,.8394,.9072-.3431,3.4302-.6564,6.8634-.9819,10.2953-.0133,.1399-.0492,.2776-.0646,.4175-.2162,1.973-.2272,1.9226-2.2436,2.3788-1.948,.4407-3.7771,.1498-5.5291-.6996-1.124-.545-1.8876-1.3369-1.7899-2.7718,.1099-1.6141-.0005-3.2422,.0753-4.8599,.1858-3.9656,.4236-7.9287,.65-12.0685Z"/>
  <path class="cls-3" d="M117.3658,154.259c1.6614-.0261,3.0724,.1962,4.4577-.1845,.6606-.1815,.6265,.4144,.7636,.7511,1.8903,4.643,3.4483,9.3997,4.8749,14.2033,.5566,1.8744,1.0581,3.7787,2.0466,5.4958,.1384,.2404,.0715,.4826,.0259,.7178-.5828,3.001-3.4159,5.1022-6.466,4.8402-.5181-.0445-.846-.2429-1.0824-.6857-1.2051-2.2575-2.4067-4.5169-3.6389-6.7596-.2774-.5048-.1871-.7493,.2712-1.1031,3.4743-2.6831,5.0942-8.36,2.4588-12.6043-1.0188-1.6408-2.2848-3.0815-3.7113-4.671Z"/>
  <path class="cls-2" d="M110.1427,156.2493c-.7078,.0219-.8281,.4862-1.0266,.9506-1.0549,2.4681-2.8975,4.1132-5.4328,4.9401-1.2893,.4205-2.2573,.0315-3.0469-1.039-.1247-.169-.2216-.4441-.3816-.4884-1.8848-.5216-2.0997-2.4576-3.1245-3.6979-.4579-.5542-.871-.8244-1.5819-.7653-.7603,.0631-1.6947,.2332-2.0776-.6166-.4392-.975,.4224-1.523,1.0407-2.0873,1.8304-1.6707,3.9178-2.9725,6.0439-4.222,.4884-.287,.7368-.2227,1.075,.2681,1.1815,1.7143,2.5058,3.3086,4.155,4.6148,1.2793,1.0132,2.7466,1.6054,4.3572,2.1428Z"/>
  <path class="cls-2" d="M105.858,193.4158c-2.1201-.0646-4.9186-.693-7.6506-1.6344-1.1722-.4039-2.0163-1.1992-2.1802-2.4711-.1415-1.0973,.8635-2.585,2.0222-3.0976,1.4061-.6221,2.9362-.673,4.434-.7906,.6117-.0481,1.1186,.5378,1.5923,.8437,2.7396,1.7691,5.6172,2.0789,8.6675,1.1612,.7989-.2403,.9494-.1445,.8315,.709-.5082,3.6788-2.6027,5.3037-7.7166,5.2798Z"/>
  <path class="cls-2" d="M130.6917,175.3988c2.1463,2.2963,2.2743,6.2209,.1889,8.6725-2.1807,2.5636-4.8406,4.4829-8.1436,5.3981-.5926,.1642-1.1908,.1884-1.7801,.1044-1.1356-.1617-1.7776-1.3166-1.4063-2.4774,.6903-2.1582,2.2363-3.8008,3.4239-5.6597,.1626-.2546,.3922-.2314,.6428-.2487,3.6728-.2542,5.7834-1.9258,6.8872-5.4366,.0308-.0979,.0968-.1848,.1872-.3525Z"/>
  <path class="cls-2" d="M115.5843,152.4726c3.4858-5.1697,5.8279-10.7103,7.0335-16.9054,.481,1.0968,.3997,2.053,.3932,2.9933-.0306,4.4345,.0671,8.8736-.592,13.2835-.106,.7091-.345,1.0752-1.0554,1.1934-1.5816,.2631-3.1344,.395-4.6104-.4471-.3183-.1816-.6782-.394-1.1689-.1176Z"/>
  <path class="cls-2" d="M71.5835,122.8653c-1.1624-.0795-2.0473-.5891-2.7095-1.49-1.5179-2.0649-2.4122-4.4155-3.1286-6.847-.0865-.2938-.0742-.497,.2633-.681,1.6724-.9121,2.5245-.4652,2.6372,1.4203,.0592,.9899,.3039,1.1652,1.2483,.8941,1.0273-.2949,1.3524-.1197,1.324,.9865-.0277,1.0782,.1878,1.7191,1.4207,1.8476,.6238,.065,1.178,.6721,1.1727,1.3354-.0068,.8454-.3089,1.728-1.1269,2.1234-.3354,.1621-.6602,.5866-1.1011,.4106Z"/>
  <path class="cls-5" d="M106.3257,121.7385c.1961,1.4886,.4039,2.9758,.584,4.4663,.1054,.8718,.0451,1.7821,.273,2.6167,.4883,1.7877-.0668,3.3046-.9599,4.7849-.2691,.4459-.5175,.9043-.8977,1.5719-.4585-2.1722-.9962-4.0899-.4724-6.1266,.5252-2.0418,.8127-4.1289,1.0586-6.2212,.0432-.3678,.1394-.7294,.2111-1.0938,.0678,.0006,.1355,.0012,.2033,.0018Z"/>
  <path class="cls-2" d="M121.9666,105.0879c.4421-2.0216,.8565-4.0021,1.3167-5.972,.1474-.6308,1.5388-.9923,2.1572-.6099,1.2961,.8014,1.5872,2.5877,.5861,3.7531-.3412,.3972-.7278,.7663-1.1399,1.0891-.8801,.6893-1.8501,1.2389-2.9201,1.7396Z"/>
  <path class="cls-2" d="M116.0161,112.8384c-1.6417,2.0642-3.4026,3.9825-5.6428,5.4064-.6162,.3917-1.1177,.2097-1.62-.2009-.2979-.2435-.6161-.4623-1.0137-.7581,2.7912-1.5006,5.5655-2.9018,8.2765-4.4475Z"/>
  <path class="cls-2" d="M102.0427,113.5749c1.2939,.9508,2.2366,2.313,3.6789,3.2494-.5931,.5054-1.2851,.5624-1.911,.7408-.4077,.1162-.5082-.301-.6516-.5624-.5697-1.0384-.8787-2.1759-1.1164-3.4279Z"/>
  <path class="cls-5" d="M105.6046,118.9877c-.0868-.5704,.0677-1.1598,.8618-1.0793,.4042,.041,.9959,.2135,.9118,.915-.092,.7679-.483,1.4448-1.2185,1.4814-.6619,.0329-.5558-.7114-.5552-1.317Z"/>
  <path class="cls-7" d="M7.657,38.1456c-.2143-3.6567,.5717-8.1322,1.3579-12.6067,.4854-2.7628,2.0405-4.9519,3.7388-7.0937,2.9694-3.7449,6.0835-7.3042,10.3726-9.6281,3.3346-1.8067,6.8716-2.7318,10.6639-2.9244,5.6098-.2849,11.0832,.3096,16.4759,1.898,2.4669,.7266,4.6823,1.8678,6.7585,3.3365,1.9238,1.3609,3.8059,2.7849,5.7736,4.0788,3.9401,2.5908,6.0293,6.3523,7.1278,10.8106,1.4382,5.8369,1.8581,11.7524,1.2226,17.7114-.3707,3.4755-1.4431,6.7909-3.2207,9.8398-3.8169,6.5468-8.7804,12.0492-15.0425,16.3325-2.1474,1.4688-4.5455,2.4893-6.9866,3.3824-1.0431,.3816-2.1229,.4409-3.2252,.2582-1.4939-.2476-3.0026-.439-4.5159-.2978-5.5578,.5188-10.7368-.8258-15.7319-3.1218-.2544-.1169-.5189-.2132-.7823-.3091-3.4181-1.2443-5.9658-3.4608-7.6961-6.6797-2.0608-3.8336-4.3039-7.5922-5.3147-11.8756-.9445-4.0021-.9197-8.1055-.9756-13.1113ZM54.1589,10.9554c.1629,.0814,.3208,.0867,.4704-.0313-.1067-.0616-.2135-.1232-.3202-.1849-1.211-.871-2.5867-1.3893-3.9979-1.8058-5.2-1.535-10.4896-2.2343-15.9316-1.9799-3.7574,.1757-7.2743,.9915-10.5997,2.7544-4.1574,2.204-7.1643,5.6292-10.0053,9.2412-1.2795,1.6268-2.6756,3.1949-3.266,5.2458-.8832,3.0681-1.1526,6.24-1.6284,9.4675,.3907-.1991,.4011-.5057,.5022-.7405,4.6202-10.7253,12.8828-17.4151,23.6755-21.2191,3.3078-1.1659,6.8374-1.2945,10.3098-1.4653,3.6121-.1777,7.2529-.3877,10.7912,.7179Zm-7.5604,.2571c-4.0111,.1261-8.0905,.0688-11.9435,1.2255-11.0995,3.332-19.4564,9.9973-24.1885,20.791-.6579,1.5005-1.5412,3.0588-1.6217,4.6262-.2292,4.4633-.1869,8.9688,.9254,13.3396,1.1981,4.7083,3.6144,8.8799,6.1518,12.9755,1.1331,1.829,2.7621,3.0778,4.6785,3.9697,2.8952,1.3474,5.8887,2.4421,8.9364,3.3925,1.4578,.4546,2.9449,.6396,4.4708,.6305,3.313-.0199,6.6265,.0169,9.939-.0258,.6459-.0083,1.2445,.3596,1.9389,.0421,2.551-1.1665,5.1659-2.1991,7.4349-3.9039,3.3658-2.5288,6.4778-5.3291,9.0874-8.6446,3.0982-3.9363,5.9848-8.0055,7.0816-13.0282,1.5273-6.9935,.9047-13.9068-.7666-20.7943-1.0845-4.4692-3.4966-7.9236-7.4456-10.287-.2139-.128-.4237-.5297-.7085-.2807-.6233,.545-1.0105,.0807-1.4603-.2423-2.2078-1.5856-4.4858-3.0404-7.2392-3.4753-1.743-.2753-3.5031-.3642-5.2708-.3105Z"/>
  <path class="cls-7" d="M108.0738,105.3802c-1.0274-.0858-2.31-.3796-3.2417-1.4874-.2709-.3222-.5683-.7153-.1023-1.0936,.4637-.3765,.6664,.0836,.9197,.3571,1.2099,1.3066,3.1643,1.4933,5.1724,.5575,.4265-.1987,1.0028-.949,1.3878-.1258,.333,.7122-.4958,.8854-.9595,1.1199-.9251,.4679-1.937,.6762-3.1764,.6723Z"/>
  <path class="cls-7" d="M107.2294,99.2298c.4369,.4826,.8644,.6525,1.276,.8465,.3321,.1565,.4988,.3941,.3545,.7596-.1563,.3961-.4703,.3692-.7886,.2408-.2262-.0912-.4406-.2129-.6567-.3278-1.752-.9313-1.8066-1.6235-.2264-2.7703,.7665-.5563,1.5385-1.1064,2.2818-1.6926,.3141-.2477,.6122-.409,.9221-.0942,.3339,.3392,.1155,.6843-.1674,.905-.8577,.6693-1.7427,1.3036-2.6217,1.9453-.1127,.0823-.2523,.1278-.3737,.1875Z"/>
  <path class="cls-7" d="M115.3137,95.8646c-.5361-.1586-.8073-.5237-.7995-1.0809,.008-.5776,.4772-.6641,.8852-.7039,.5555-.0541,.7299,.3473,.7094,.8182-.0215,.4938-.2277,.8798-.7951,.9665Z"/>
  <path class="cls-7" d="M106.0333,95.8253c-.3459-.0724-.5602-.321-.5656-.7131-.0081-.5861,.2607-1.025,.8458-1.1523,.4746-.1033,.7031,.2412,.7771,.6511,.0638,.3535-.6643,1.194-1.0572,1.2144Z"/>
  <path class="cls-5" d="M46.5985,11.2125c1.7677-.0537,3.5278,.0352,5.2708,.3105,2.7534,.4349,5.0315,1.8897,7.2392,3.4753,.4498,.323,.837,.7873,1.4603,.2423,.2848-.249,.4945,.1527,.7085,.2807,3.9491,2.3633,6.3611,5.8178,7.4456,10.287,1.6713,6.8875,2.2939,13.8008,.7666,20.7943-1.0969,5.0227-3.9834,9.0919-7.0816,13.0282-2.6096,3.3155-5.7216,6.1158-9.0874,8.6446-2.269,1.7048-4.8839,2.7374-7.4349,3.9039-.6944,.3175-1.293-.0504-1.9389-.0421-3.3126,.0427-6.6261,.0059-9.939,.0258-1.5258,.0091-3.013-.1759-4.4708-.6305-3.0477-.9505-6.0412-2.0451-8.9364-3.3925-1.9164-.8919-3.5454-2.1407-4.6785-3.9697-2.5374-4.0955-4.9537-8.2672-6.1518-12.9755-1.1123-4.3708-1.1545-8.8763-.9254-13.3396,.0805-1.5674,.9638-3.1257,1.6217-4.6262,4.7321-10.7937,13.0889-17.459,24.1885-20.791,3.8531-1.1567,7.9324-1.0993,11.9435-1.2255Zm16.1943,19.2098c.0291-2.906-.845-5.841-2.2028-8.6638-1.2224-2.5412-3.2863-3.9558-5.975-4.5532-1.1476-.255-2.1469,.1432-2.6626,1.0201-.5079,.8636-.384,1.9729,.4078,2.8187,.6243,.6668,1.3051,1.2872,2.0055,1.8749,1.5669,1.3148,2.5375,2.9151,2.9225,4.9669,.4067,2.1672,.559,4.3131,.3481,6.502-.0735,.7629,1.4606,2.8732,2.1608,3.0673,.9504,.2635,1.4641-.3274,1.8335-1.0479,.9206-1.7957,1.1744-3.7381,1.1621-5.9849Zm-2.7569,14.7354c-.0337-.7178,.0411-1.6837-.8111-2.1352-.9339-.4948-1.8538-.0665-2.6419,.5184-.36,.2672-.7614,.595-.9252,.9868-.3998,.9565-.7874,1.9461-.9658,2.9601-.2142,1.2173,.453,2.2684,1.4396,2.6559,.9385,.3685,1.938-.0199,2.6958-1.1072,.7817-1.1216,1.1854-2.3795,1.2086-3.8787Z"/>
  <path class="cls-6" d="M54.1588,10.9555c-3.5383-1.1057-7.1791-.8956-10.7912-.718-3.4724,.1708-7.002,.2994-10.3098,1.4653-10.7927,3.8039-19.0553,10.4938-23.6755,21.2191-.1011,.2347-.1115,.5413-.5022,.7405,.4758-3.2275,.7451-6.3994,1.6284-9.4675,.5904-2.051,1.9865-3.619,3.266-5.2458,2.841-3.612,5.8479-7.0372,10.0053-9.2412,3.3254-1.7629,6.8423-2.5787,10.5997-2.7544,5.442-.2545,10.7316,.4449,15.9316,1.9799,1.4112,.4165,2.7869,.9348,3.9979,1.8058-.0501,.0721-.1001,.1442-.1502,.2163Z"/>
  <path class="cls-2" d="M54.309,10.7392c.1068,.0616,.2135,.1233,.3202,.1849-.1496,.118-.3075,.1127-.4704,.0314,.0501-.072,.1001-.1442,.1502-.2163Z"/>
  <path class="cls-2" d="M62.7928,30.4223c.0123,2.2468-.2415,4.1892-1.1621,5.9849-.3693,.7205-.8831,1.3114-1.8335,1.0479-.7002-.1941-2.2343-2.3044-2.1608-3.0673,.2109-2.1889,.0585-4.3347-.3481-6.502-.385-2.0518-1.3555-3.6521-2.9225-4.9669-.7004-.5877-1.3812-1.2081-2.0055-1.8749-.7918-.8458-.9157-1.955-.4078-2.8187,.5157-.8769,1.515-1.2751,2.6626-1.0201,2.6887,.5974,4.7526,2.012,5.975,4.5532,1.3578,2.8228,2.2318,5.7579,2.2028,8.6638Z"/>
  <path class="cls-2" d="M60.0359,45.1576c-.0232,1.4993-.4269,2.7571-1.2086,3.8787-.7578,1.0873-1.7573,1.4758-2.6958,1.1072-.9866-.3874-1.6538-1.4385-1.4396-2.6559,.1784-1.014,.566-2.0036,.9658-2.9601,.1638-.3918,.5652-.7197,.9252-.9868,.7881-.5849,1.708-1.0132,2.6419-.5184,.8522,.4515,.7774,1.4174,.8111,2.1352Z"/>
</svg>