<?xml version="1.0" encoding="UTF-8"?>
<svg id="img" xmlns="http://www.w3.org/2000/svg" viewBox="0 0 70 90">
  <defs>
    <style>
      .cls-1 {
        fill: #e95037;
      }

      .cls-2 {
        fill: #fff;
      }

      .cls-3 {
        fill: #8bd1f4;
      }
    </style>
  </defs>
  <g>
    <path class="cls-2" d="M61.4491,47.7464c2.2493-3.0575,4.1073-6.3319,4.442-10.1759,.5383-6.1811-.9348-11.9537-4.1053-17.2703-1.253-2.1012-2.9357-3.8591-5.038-5.1376-2.6913-1.6367-5.6375-1.5162-8.5604-.9106-1.3297,.2755-2.6947,.4317-3.9674,1.0844-3.3842,1.7353-6.1625,4.1143-8.7146,6.9423-2.4834,2.752-3.6804,6.0404-4.1342,9.4353-.4127,3.0875-.5368,6.2303-1.1278,9.3176-.6835,3.571-2.4433,6.5197-5.0672,9.2785-.2773-3.8927-1.2762-7.4285-1.9298-11.0216-.2731-1.5013,.457-3.7388-1.8977-4.4778-.0638-.02-.0706-.3216-.0525-.4862,.1043-.9496,.0947-1.9112,.1732-2.8602,.153-1.8485,.9206-3.573,.8741-5.4487-.0282-1.1404-.6525-1.4509-1.5337-1.24-1.1111,.2658-2.3632,.467-2.9269,1.6769-.4601,.9876-1.0783,.7855-1.7644,.3644-.5206-.3195-1.0053-.6973-1.5242-1.0199-2.2397-1.3927-4.5718-2.5643-7.305-2.4026-1.9742,.1168-2.3157,.6027-1.8477,2.2814-.7196,.3873-1.8721-.3895-2.2731,.704-.3438,.9375,.5568,2.3074-1.0654,2.8583-.1464,.0497-.2293,1.2027,.4111,1.6515,.4053,.2841,.813,.5646,1.2266,.8515-1.2032,1.1083-1.1297,1.5179,.2445,2.3591,2.1724,1.3298,4.8014,1.6843,6.8593,3.276,.419,.3241,.8618,.4915,.8319,1.111-.2487,5.1602,.5776,10.2494,1.0403,15.3614,.2349,2.5959,.5599,5.2063,1.415,7.6698,1.9654,5.6624,9.0419,8.5739,13.9553,5.8155,.8957-.5029,1.7067-1.1566,2.7901-1.901-.001,2.4152-.0815,4.5653-.2516,6.7503-.2565,3.2962-.0525,6.6278-.059,9.9443-.002,1.0501,.4625,1.7834,1.3248,2.3654,2.9567,1.9957,6.2724,2.7939,9.763,2.7258,2.633-.0514,5.2739-.3203,7.8854-.6803,2.8356-.3909,5.7029-.7633,8.3101-2.0952,.5933-.303,1.2729-.559,1.53-1.2449,1.3876-3.7005,3.1173-7.2493,4.2193-11.0867,1.4019-4.8814,2.492-9.6553,1.7059-14.8124-.5275-3.4605-1.8316-6.4246-3.8561-9.1704,0-.1274,0-.2548-.0001-.3822ZM22.868,8.2895c-.2861-.0464-.405,.1127-.5922,.3857-.5686,.829-1.3138,1.54-1.8558,2.3834-.5393,.8391-1.9443,.7471-2.087,1.3079-.2415,.9495,1.4859,.6882,1.7225,1.6882,.1121,.474,.4167,.9005,.5469,1.3726,.2643,.9581,.4844,1.9293,.6892,2.9022,.0604,.2868,.0427,.5592,.4364,.5887,.4357,.0326,.4932-.1991,.63-.5752,.5358-1.4727,.833-3.0071,2.0011-4.2623,1.5492-1.6647-1.1739-2.5492-1.0146-4.0452,.0421-.3955,.0065-.7994,.0037-1.1995-.0021-.3012-.0372-.5795-.4803-.5465ZM14.246,3.4759c-.4143-.054-.6834,.2338-.8201,.5142-.6975,1.4305-1.4162,2.8277-2.7899,3.7576-.641,.434-.7786,1.0153,.0049,1.3562,1.5179,.6606,1.9919,2.0106,2.3961,3.3949,.1421,.4868,.2522,.9441,.7883,.8823,.3959-.0456,.4921-.503,.621-.906,.3982-1.2451,.5053-2.5655,1.276-3.7273,.4143-.6246,1.64-1.4448,.092-2.4307-.8796-.5603-.7807-1.8853-1.2413-2.8149-.0255-.0515-.2147-.0219-.3269-.0264Z"/>
    <path d="M22.868,8.2895c.4431-.033,.4782,.2453,.4803,.5465,.0028,.4,.0384,.804-.0037,1.1995-.1593,1.496,2.5638,2.3805,1.0146,4.0452-1.1681,1.2552-1.4653,2.7897-2.0011,4.2623-.1368,.3761-.1943,.6078-.63,.5752-.3937-.0295-.3759-.3018-.4364-.5887-.2049-.9729-.425-1.9441-.6892-2.9022-.1302-.4721-.4348-.8986-.5469-1.3726-.2366-1-1.9641-.7387-1.7225-1.6882,.1427-.5607,1.5476-.4688,2.087-1.3079,.5421-.8434,1.2872-1.5543,1.8558-2.3834,.1873-.273,.3061-.4321,.5922-.3857Zm-.4916,2.4204q-1.9745,1.4154-.4248,4.7586c1.6308-1.4532,1.7156-3.0445,.4248-4.7586Z"/>
    <path d="M14.2452,3.4721c.113,.0082,.3022-.0214,.3277,.0301,.4606,.9296,.3616,2.2546,1.2413,2.8149,1.548,.9859,.3223,1.8061-.092,2.4307-.7707,1.1619-.8778,2.4822-1.276,3.7273-.1289,.4031-.225,.8604-.621,.906-.536,.0617-.6461-.3955-.7883-.8823-.4042-1.3844-.8782-2.7344-2.3961-3.3949-.7834-.3409-.6459-.9222-.0049-1.3562,1.3737-.9299,2.0924-2.3271,2.7899-3.7576,.1367-.2804,.4059-.5683,.8193-.518Zm-.604,6.8713c.9547-1.6096,2.1864-3.0841,.3807-4.7899-2.4303,2.2263-2.4852,2.7466-.3807,4.7899Z"/>
    <path class="cls-2" d="M61.4492,48.1286c-.0851-.0826-.1701-.1652-.2552-.2477,.085-.0448,.1701-.0896,.2551-.1345,0,.1274,0,.2548,0,.3822Z"/>
    <path class="cls-3" d="M52.7845,47.177c-.5125,1.2143-.8252,2.3575-1.4639,3.4378-2.1601,3.6537-4.2367,7.4319-5.0835,11.6059-.5417,2.6699-.8132,5.4962,1.3479,7.9918,2.9466,3.4028,6.8577,2.2405,8.7466-1.3857,1.7539-3.367,2.3129-6.9953,1.1842-10.6725-.7258-2.3647,1.0817-6.8414,2.8114-8.3466,.9788-.8517,1.4511,.405,1.7188,.9147,.9965,1.8967,1.7368,3.9104,2.1619,6.033,1.1902,5.9425-.4063,11.523-2.2286,17.0578-.8082,2.4546-1.9697,4.7971-2.7091,7.2689-.8316,2.7803-3.3162,3.2868-5.3889,3.6488-4.2347,.7397-8.523,1.5178-12.848,1.4459-2.9442-.049-5.8065-.7949-8.3115-2.4774-.6976-.4686-1.1651-1.0517-1.1021-2.0983,.1233-2.0496-.0738-4.1164-.0142-6.1725,.1031-3.5552,.1855-7.1136,.6397-10.6514,.0623-.4855,.3977-1.2186-.2841-1.5124-.6529-.2813-1.1584,.1688-1.6035,.6628-1.6591,1.8413-3.444,3.3313-6.21,3.0925-3.1206-.2694-6.0547-.7881-7.983-3.6143-1.3191-1.9333-1.7475-4.2338-2.0034-6.4206-.6734-5.7553-1.5326-11.5071-1.4744-17.3325,.0096-.9595,.2976-1.3575,1.2483-1.6174,1.798-.4914,3.5313-1.2145,5.3083-1.789,1.8088-.5848,2.4101-.115,2.7466,1.7713,.6135,3.4383,1.3469,6.8553,1.9629,10.2932,.1883,1.0511,.0686,2.1595,.2817,3.2026,.0588,.2879-.1305,.9567,.563,1.0631,.6892,.1057,.7017-.5238,.8925-.8286,1.5929-2.5444,3.5389-4.7981,5.6145-6.9437,.8409-.8692,1.3228-1.6402,2.5984,.0879,1.7924,2.4281,4.6789,3.6304,7.8175,3.915,3.3111,.3003,6.456-.4398,9.5535-1.4463,.5017-.163,.93-.3509,1.5105-.1837Z"/>
    <path class="cls-1" d="M40.5102,18.988c1.2501-1.4145,3.0832-2.177,4.6619-2.6897,2.9454-.9566,6.0718-1.9743,9.3093-1.0563,2.8295,.8024,4.7458,2.835,6.1307,5.1997,2.6339,4.4974,4.369,9.29,4.3252,14.6696-.0372,4.574-1.6161,8.4268-4.33,11.9794-2.3023,3.0138-4.4067,6.1631-4.2886,10.1978,.0489,1.6711,.8953,3.2338,.6866,4.9669-.2862,2.3768-.5781,4.6978-2.0367,6.7564-1.0851,1.5315-2.3542,2.4465-4.2327,2.0788-1.6764-.3281-2.8235-1.5449-3.2962-3.0604-.8374-2.685-.5027-5.3709,.5233-8.015,1.3926-3.5887,3.3968-6.8726,4.9921-10.3604,1.0537-2.3038,1.5593-4.8027,2.7348-7.0471,.087-.1235,.1741-.247,.2611-.3706,.0052-1.0072,.854-1.2721,1.5249-1.5849,1.3402-.6248,2.5172-1.4449,3.5035-2.533,1.5021-1.6571,1.5515-3.9259,.1408-5.6198-.1815-.218-.4121-.5775-.6105-.5713-2.5248,.079-1.6902-2.074-2.0994-3.2759-.8434-2.477-1.6827-4.9551-3.5489-6.8419-2.275-2.3003-2.1632-1.912-5.1307-.2332-3.8448,2.175-7.6451,4.3761-12.1354,5.015-1.0135,.1442-2.2036,.4818-2.2624,1.9726-.0149,.3774-.2752,.7087-.8144,.3964-.3399-.1969-.8336,.0195-.9004-.7121-.1372-1.5016,.6365-2.6981,1.4925-3.6031,1.6797-1.776,2.9547-3.9367,4.9963-5.37,.1345-.096,.2689-.1919,.4032-.2878Z"/>
    <path class="cls-2" d="M34.9941,44.685c-1.0953-.663-.2799-1.5827-.3072-2.3818-.1275-3.732,.3681-7.4128,1.0392-11.0675,.3631-1.9776,.9482-3.7006,3.4969-4.0144,4.4966-.5537,8.2524-3.0643,12.016-5.3074,1.5896-.9474,2.3445-.1297,2.9169,.6523,2.3003,3.1425,4.0416,6.5597,3.5106,10.6507-.3361,2.5892-1.4749,4.9527-2.2878,7.4052-.4137,1.2482-.9773,2.4473-1.484,3.664-.2712,.6512-.7479,1.1639-1.3849,1.4094-4.0376,1.5561-8.1226,2.7637-12.5334,1.7401-1.782-.4135-3.1788-1.4685-4.6182-2.4803-.1213-.0901-.2427-.1802-.364-.2702Zm9.8726-7.582c.2989-.0954,.8463,.2699,1.0988-.2834,.1043-.2284,.1167-.6648-.2428-.6862-2.2766-.1355-.8907-1.0862-.4933-1.9267,.5573-1.1786,1.4249-2.114,2.1821-3.1395,.1831-.248,.816-.3417,.4175-.8585-.4383-.5682-.7605-.1707-1.0952,.1604-1.3253,1.311-2.2237,2.9119-3.174,4.4917-.3249,.5401-.8968,1.0222-.5749,1.626,.3334,.6255,1.0807,.7056,1.8819,.6163Z"/>
    <path class="cls-2" d="M3.4375,29.9027c1.3089,.1323,2.458-.2486,3.6045,.2767,.3391,.1553,.9394,.3284,1.1699-.2231,.307-.7346-.4644-.8089-.8279-1.0156-.7626-.4336-1.6707-.5395-2.4352-1.0378-.3307-.2156-.8156-.3212-.7705-.7443,.064-.6004,.6295-.2974,.9699-.3251,1.3068-.1064,2.5334,.258,3.6962,.8039,.6273,.2945,1.3512,.4889,1.6059-.1944,.1927-.5168-.5219-.8473-1.0671-1.0297-.725-.2425-1.4636-.4688-2.1441-.8071-.2302-.1144-.7844-.104-.6572-.5925,.1065-.4091,.4481-.6818,.8997-.5829,1.1855,.2596,2.4652,.1282,3.5659,.6961,1.5194,.7839,3.0687,1.5024,4.4685,2.5354,.6968,.5143,.6544,.6775,.1454,1.2052-.4602,.4771-.9107,1.0192-1.1628,1.618-.1261,.2996-.8657,.7315-.1731,1.1044,.4426,.2383,.8625-.0905,1.1167-.5243,.9884-1.6869,2.4441-2.9752,3.7573-4.3828,.503-.5392,1.2277-1.1793,1.8728-.7874,.4936,.2998,.254,1.2114,.0823,1.8808-.457,1.7813-.9265,3.5618-.8999,5.4297,.015,1.0583-.3942,1.8318-1.5209,2.1602-1.6923,.4932-3.3641,1.0587-5.0371,1.6158-.8191,.2728-1.4354,.1421-2.145-.4537-1.7178-1.4422-3.9867-1.8192-5.944-2.8181-.4847-.2474-1.0758-.3176-1.3833-.9371,.184-.0426,.3258-.1081,.4646-.1022,.6871,.0292,1.6174-.0486,1.7562-.6175,.2318-.9502-.9679-.6424-1.449-1.0505-.4199-.3562-1.1356-.3366-1.5586-1.1002Z"/>
    <path class="cls-2" d="M57.0195,39.5587c.5926-2.1674,1.1463-4.1936,1.7007-6.2197,.098-.3584,.3429-.5769,.6925-.659,.4634-.1089,.7353,.1652,.9753,.5147,.8423,1.2266,.8975,3.1941-.185,4.2495-.8602,.8387-1.785,1.7623-3.1835,2.1146Z"/>
    <path class="cls-1" d="M32.292,35.9518c1.6821,1.2322,1.1759,2.9065,1.3921,4.4366,.3229,2.2852-1.9074,2.1373-2.9365,3.2105,.5195-2.5721,1.0389-5.1442,1.5444-7.6471Z"/>
    <path class="cls-2" d="M33.8408,35.5688c-1.3651-1.1549-2.0309-3.135-1.453-4.5586,.2774-.6833,.6833-1.3476,1.6103-1.0872,.9215,.2588,.7521,1.0676,.6562,1.6889-.2057,1.3336-.5367,2.648-.8135,3.9569Z"/>
    <path d="M65.8912,37.5705c.5383-6.1811-.9348-11.9537-4.1053-17.2703-1.253-2.1012-2.9357-3.8591-5.0379-5.1376-2.6913-1.6367-5.6375-1.5162-8.5605-.9106-1.3296,.2755-2.6947,.4317-3.9674,1.0844-3.3841,1.7353-6.1625,4.1143-8.7146,6.9423-2.4834,2.7519-3.6804,6.0404-4.1341,9.4353-.4127,3.0875-.5369,6.2303-1.1278,9.3176-.6835,3.571-2.4433,6.5198-5.0672,9.2785-.2773-3.8927-1.2762-7.4285-1.9298-11.0216-.2731-1.5013,.4571-3.7388-1.8977-4.4778-.0638-.02-.0706-.3216-.0526-.4862,.1043-.9496,.0947-1.9112,.1732-2.8602,.153-1.8485,.9206-3.573,.8741-5.4487-.0282-1.1404-.6525-1.4509-1.5336-1.24-1.1111,.2659-2.3632,.467-2.9269,1.6769-.4601,.9876-1.0784,.7855-1.7645,.3644-.5206-.3195-1.0053-.6973-1.5242-1.0199-2.2397-1.3927-4.5719-2.5643-7.305-2.4026-1.9742,.1168-2.3157,.6027-1.8481,2.28-.7192,.3888-1.8717-.388-2.2727,.7055-.3438,.9375,.5568,2.3075-1.0654,2.8583-.1464,.0497-.2292,1.2027,.4111,1.6515,.4053,.2841,.813,.5646,1.2266,.8515-1.2033,1.1083-1.1297,1.5179,.2445,2.3591,2.1724,1.3297,4.8014,1.6842,6.8593,3.276,.419,.3241,.8618,.4914,.8319,1.111-.2487,5.1602,.5776,10.2494,1.0403,15.3614,.2349,2.5959,.5599,5.2063,1.415,7.6697,1.9654,5.6624,9.042,8.574,13.9553,5.8156,.8957-.5029,1.7068-1.1566,2.7901-1.901-.001,2.4152-.0815,4.5654-.2515,6.7503-.2566,3.2962-.0526,6.6278-.059,9.9443-.0021,1.0502,.4624,1.7834,1.3247,2.3654,2.9568,1.9957,6.2724,2.7939,9.763,2.7258,2.633-.0514,5.2739-.3203,7.8854-.6803,2.8356-.3909,5.7029-.7633,8.3102-2.0952,.5933-.303,1.2729-.559,1.53-1.2449,1.3876-3.7005,3.1173-7.2493,4.2193-11.0867,1.4019-4.8814,2.4919-9.6553,1.7059-14.8124-.5275-3.4605-1.8316-6.4246-3.8561-9.1704-.085-.0826-.1701-.1652-.2552-.2478,.0851-.0448,.1701-.0896,.2551-.1345,2.2492-3.0575,4.1072-6.3319,4.442-10.1759Zm-33.5033-6.5602c.2774-.6834,.6833-1.3476,1.6103-1.0872,.9215,.2588,.752,1.0676,.6562,1.689-.2057,1.3336-.5367,2.648-.8135,3.9569-1.3652-1.1549-2.0309-3.135-1.453-4.5586Zm25.2787,2.2067c-.3361,2.5892-1.4749,4.9526-2.2879,7.4052-.4137,1.2482-.9773,2.4472-1.484,3.664-.2712,.6512-.7479,1.1639-1.3849,1.4094-4.0376,1.5561-8.1226,2.7636-12.5334,1.7401-1.782-.4135-3.1788-1.4685-4.6182-2.4803-.1214-.0901-.2427-.1802-.364-.2702h0c-1.0953-.663-.2799-1.5827-.3072-2.3818-.1275-3.732,.3681-7.4128,1.0392-11.0674,.3631-1.9776,.9482-3.7006,3.4968-4.0145,4.4966-.5537,8.2524-3.0643,12.016-5.3073,1.5896-.9474,2.3445-.1297,2.9169,.6523,2.3002,3.1425,4.0415,6.5597,3.5106,10.6507Zm1.0537,.1221c.098-.3584,.3429-.5769,.6925-.659,.4634-.1088,.7352,.1652,.9753,.5147,.8423,1.2266,.8975,3.1941-.185,4.2495-.8603,.8387-1.785,1.7623-3.1835,2.1146,.5926-2.1673,1.1463-4.1936,1.7007-6.2197Zm-26.4283,2.6128c1.6822,1.2322,1.1759,2.9065,1.3921,4.4366,.3229,2.2852-1.9074,2.1373-2.9365,3.2105,.5195-2.5721,1.0389-5.1443,1.5444-7.6471Zm-20.7404,.5766c-1.7177-1.4422-3.9867-1.8192-5.944-2.8181-.4847-.2474-1.0758-.3176-1.3833-.9371,.1839-.0426,.3258-.108,.4646-.1022,.6871,.0292,1.6174-.0486,1.7562-.6175,.2318-.9502-.9679-.6423-1.449-1.0505-.4199-.3562-1.1356-.3366-1.5586-1.1002,1.3089,.1323,2.458-.2486,3.6046,.2766,.3391,.1553,.9394,.3284,1.1699-.2231,.307-.7346-.4644-.8089-.8279-1.0156-.7626-.4336-1.6707-.5395-2.4352-1.0378-.3306-.2156-.8156-.3212-.7705-.7443,.0639-.6004,.6295-.2974,.9699-.3251,1.3068-.1064,2.5334,.258,3.6962,.8039,.6273,.2945,1.3512,.4889,1.6059-.1944,.1927-.5168-.5219-.8473-1.0671-1.0297-.725-.2425-1.4636-.4688-2.1441-.8071-.2302-.1144-.7844-.104-.6572-.5925,.1066-.4091,.4481-.6818,.8997-.5829,1.1854,.2596,2.4652,.1282,3.5659,.6961,1.5194,.7839,3.0687,1.5023,4.4685,2.5354,.6968,.5143,.6544,.6775,.1454,1.2053-.4602,.4771-.9107,1.0192-1.1628,1.618-.1261,.2996-.8657,.7315-.1731,1.1044,.4425,.2383,.8625-.0905,1.1167-.5243,.9884-1.6869,2.4441-2.9752,3.7573-4.3828,.503-.5392,1.2276-1.1793,1.8728-.7873,.4935,.2998,.254,1.2114,.0822,1.8808-.457,1.7813-.9265,3.5618-.8999,5.4297,.0151,1.0583-.3942,1.8319-1.5209,2.1602-1.6923,.4932-3.3641,1.0587-5.0371,1.6158-.8191,.2728-1.4354,.142-2.1451-.4538Zm50.4945,14.194c.9965,1.8967,1.7368,3.9104,2.1619,6.033,1.1902,5.9426-.4063,11.523-2.2286,17.0578-.8082,2.4546-1.9698,4.7971-2.7091,7.2689-.8317,2.7803-3.3162,3.2868-5.3889,3.6488-4.2347,.7397-8.523,1.5179-12.848,1.446-2.9442-.049-5.8065-.7949-8.3115-2.4774-.6977-.4686-1.1651-1.0517-1.1021-2.0983,.1233-2.0496-.0739-4.1164-.0142-6.1725,.1031-3.5552,.1855-7.1136,.6397-10.6514,.0623-.4855,.3977-1.2187-.2841-1.5124-.6529-.2813-1.1584,.1688-1.6035,.6628-1.6591,1.8413-3.444,3.3313-6.2101,3.0925-3.1206-.2694-6.0547-.7881-7.983-3.6142-1.3191-1.9333-1.7475-4.2338-2.0034-6.4206-.6733-5.7553-1.5327-11.5071-1.4745-17.3325,.0096-.9595,.2976-1.3576,1.2484-1.6174,1.798-.4914,3.5313-1.2145,5.3083-1.789,1.8088-.5848,2.4101-.115,2.7466,1.7713,.6135,3.4383,1.3469,6.8553,1.9629,10.2932,.1883,1.0511,.0686,2.1595,.2817,3.2026,.0588,.288-.1305,.9567,.563,1.0631,.6892,.1057,.7017-.5238,.8925-.8286,1.5928-2.5444,3.5389-4.7981,5.6145-6.9437,.8409-.8692,1.3228-1.6402,2.5984,.0879,1.7924,2.4281,4.6789,3.6304,7.8175,3.915,3.3111,.3003,6.4559-.4398,9.5535-1.4463,.5017-.1631,.93-.3509,1.5104-.1837-.5125,1.2143-.8252,2.3575-1.4638,3.4378-2.1601,3.6537-4.2367,7.4319-5.0835,11.6059-.5417,2.6699-.8132,5.4961,1.3479,7.9918,2.9466,3.4028,6.8576,2.2405,8.7465-1.3857,1.7539-3.367,2.3129-6.9952,1.1842-10.6725-.7258-2.3647,1.0817-6.8414,2.8114-8.3466,.9788-.8517,1.4511,.405,1.7189,.9147Zm-1.4387-3.6316c-2.3024,3.0138-4.4067,6.1631-4.2886,10.1978,.0489,1.6711,.8953,3.2338,.6866,4.9668-.2863,2.3768-.5781,4.6978-2.0367,6.7564-1.0851,1.5315-2.3542,2.4465-4.2327,2.0788-1.6764-.3281-2.8235-1.5449-3.2962-3.0604-.8374-2.685-.5027-5.3709,.5234-8.015,1.3925-3.5886,3.3968-6.8727,4.992-10.3604,1.0538-2.3038,1.5593-4.8028,2.7348-7.0471,.087-.1235,.1741-.2471,.2611-.3705h0c.0052-1.0072,.854-1.2721,1.5249-1.5849,1.3402-.6248,2.5172-1.4449,3.5034-2.533,1.5021-1.6571,1.5516-3.9259,.1408-5.6198-.1815-.218-.412-.5775-.6105-.5713-2.5248,.079-1.6902-2.074-2.0994-3.2759-.8434-2.477-1.6827-4.9551-3.5488-6.842-2.275-2.3003-2.1632-1.912-5.1308-.2332-3.8448,2.175-7.6451,4.3761-12.1354,5.015-1.0135,.1442-2.2036,.4818-2.2624,1.9726-.0149,.3774-.2752,.7087-.8145,.3964-.3399-.1969-.8336,.0195-.9004-.7122-.1372-1.5016,.6365-2.6981,1.4925-3.6031,1.6797-1.776,2.9547-3.9367,4.9963-5.3699,.0293-.0719,.059-.1431,.0997-.1991-.0406,.056-.0703,.1272-.0996,.199,.1345-.096,.2688-.1919,.4032-.2878,1.2501-1.4145,3.0832-2.177,4.662-2.6897,2.9454-.9566,6.0718-1.9743,9.3093-1.0563,2.8295,.8024,4.7457,2.835,6.1307,5.1997,2.6339,4.4974,4.3691,9.29,4.3252,14.6696-.0373,4.574-1.6161,8.4268-4.33,11.9794Z"/>
    <path class="cls-2" d="M22.3785,10.7101c1.2887,1.7139,1.2038,3.3052-.4269,4.7584q-1.5497-3.3431,.4269-4.7584Z"/>
    <path class="cls-2" d="M13.6412,10.3434c-2.1046-2.0433-2.0497-2.5636,.382-4.7898,1.8043,1.7057,.5727,3.1802-.382,4.7898Z"/>
    <path d="M44.8668,37.103c-.8012,.0893-1.5485,.0092-1.8819-.6163-.3219-.6038,.2501-1.0859,.5749-1.626,.9503-1.5798,1.8487-3.1807,3.174-4.4917,.3347-.3311,.657-.7286,1.0952-.1604,.3986,.5168-.2343,.6105-.4175,.8585-.7572,1.0255-1.6248,1.9609-2.1821,3.1395-.3974,.8405-1.7833,1.7912,.4933,1.9267,.3594,.0214,.347,.4578,.2428,.6862-.2525,.5534-.7999,.1881-1.0988,.2834Z"/>
    <path d="M46.6008,42.6547c.2052-.0436,.3352,.2055,.1876,.3545-1.4756,1.4913-3.8022,1.2586-4.7349-.3899-.1122-.1983-.2573-.4037-.05-.5859,.1054-.0926,.3978-.1543,.4565-.0912,1.1596,1.2473,2.5874,1.0426,4.1407,.7125Z"/>
  </g>
  <path d="M43.8327,30.2834c-.0945,.5241-.3028,1.1066-.9015,.9928-.5911-.1123-.9334-.7583-.7121-1.301,.1268-.311,.4443-.8899,1.1467-.6741,.6069,.1864,.7066,.4648,.4669,.9823Z"/>
  <path d="M49.7434,31.3859c.0985-.4476,.4212-.8529,.9218-.689,.6269,.2053,.5142,.7901,.3386,1.2991-.1202,.3485-.0962,.8705-.7283,.6672-.6345-.204-.7056-.6586-.5321-1.2774Z"/>
</svg>