<?xml version="1.0" encoding="UTF-8"?>
<svg id="Layer_2" data-name="Layer 2" xmlns="http://www.w3.org/2000/svg" viewBox="0 0 468.46 25.23">
  <defs>
    <style>
      .cls-1 {
        fill: #8bd1f4;
        stroke-width: 0px;
      }
    </style>
  </defs>
  <g id="_テキスト" data-name="テキスト">
    <g>
      <path class="cls-1" d="M0,12.63C0,6.05,2.88,0,10.29,0s10.33,6.05,10.33,12.63-2.88,12.6-10.33,12.6S0,19.22,0,12.63ZM15.3,12.63c0-3.38-1.12-7.78-5-7.78s-4.97,4.39-4.97,7.78c0,3.96,1.33,7.74,4.97,7.74s5-3.78,5-7.74Z"/>
      <path class="cls-1" d="M24.55,2.77c0-1.48,1.19-2.66,2.66-2.66s2.66,1.19,2.66,2.66v13.21c0,2.3,1.15,4.39,3.89,4.39s3.89-2.09,3.89-4.39V2.77c0-1.48,1.19-2.66,2.66-2.66s2.66,1.19,2.66,2.66v13.14c0,4.97-3.02,9.32-9.21,9.32s-9.21-4.36-9.21-9.32V2.77Z"/>
      <path class="cls-1" d="M53.13,22.46c0,1.44-1.19,2.66-2.7,2.66s-2.66-1.22-2.66-2.66V3.02c0-1.44,1.19-2.66,2.66-2.66h6.3c4.82,0,8.71,3.35,8.71,8.17,0,2.99-1.66,5.11-3.96,6.26l3.89,6.12c.25.4.58,1.08.58,1.62,0,1.55-1.22,2.59-2.7,2.59-1.01,0-1.87-.72-2.3-1.4l-4.57-7.6h-3.24v6.34ZM53.13,11.99h3.28c2.23,0,3.71-1.37,3.71-3.46s-1.48-3.42-3.71-3.42h-3.28v6.88Z"/>
      <path class="cls-1" d="M84.99,20.52c2.23,0,3.42-.94,3.42-2.38,0-1.84-1.94-2.56-4.75-3.67-3.53-1.4-6.91-2.92-6.91-7.24,0-4.07,3.02-7.24,8.75-7.24,1.48,0,3.1.22,4.54.76,1.76.68,2.63,1.66,2.81,3.42l.14,1.48c.22,2.09-.97,2.92-2.3,2.92s-2.34-.9-2.56-2.41l-.18-1.15c-.9-.18-1.8-.29-2.63-.29-2.3,0-3.13.86-3.13,2.12,0,1.48,1.19,2.02,4.25,3.2,3.74,1.48,7.38,3.2,7.38,7.63s-3.64,7.56-8.82,7.56c-1.37,0-3.64-.22-5.26-.76-1.91-.65-2.77-1.69-2.92-3.6l-.11-1.58c-.14-2.23,1.12-2.92,2.27-2.92,1.3,0,2.41.86,2.59,2.41l.14,1.33c.94.29,2.48.4,3.28.4Z"/>
      <path class="cls-1" d="M102.06,5.11h-4.03c-1.3,0-2.38-1.08-2.38-2.38s1.08-2.38,2.38-2.38h13.43c1.3,0,2.38,1.08,2.38,2.38s-1.08,2.38-2.38,2.38h-4.03v17.35c0,1.51-1.15,2.66-2.7,2.66s-2.66-1.15-2.66-2.66V5.11Z"/>
      <path class="cls-1" d="M120.06,4.39c.9-3.17,2.41-4.28,5.11-4.28,2.92,0,4.21,1.08,5.11,4.28l4.79,17.31c.11.36.11.54.11.76,0,1.44-1.19,2.66-2.66,2.66-1.22,0-2.27-.79-2.56-1.91l-1.01-4.03h-7.59l-1.01,4.03c-.29,1.12-1.33,1.91-2.56,1.91-1.48,0-2.66-1.22-2.66-2.66,0-.22,0-.4.11-.76l4.82-17.31ZM122.47,14.83h5.4l-2.52-9.97h-.36l-2.52,9.97Z"/>
      <path class="cls-1" d="M138.49,2.77c0-1.44,1.15-2.66,2.92-2.66,1.26,0,2.27.61,2.88,1.66l7.49,12.67h.14V2.77c0-1.44,1.22-2.66,2.66-2.66s2.66,1.19,2.66,2.66v19.69c0,1.37-1.08,2.66-2.92,2.66-1.26,0-2.3-.61-2.92-1.66l-7.42-12.31h-.14v11.3c0,1.44-1.19,2.66-2.7,2.66s-2.66-1.22-2.66-2.66V2.77Z"/>
      <path class="cls-1" d="M162.14,3.02c0-1.44,1.19-2.66,2.66-2.66h4.61c6.37,0,11.19,2.88,11.19,12.27s-5.4,12.24-11.27,12.24h-4.54c-1.48,0-2.66-1.19-2.66-2.66V3.02ZM169.34,20.12c3.49,0,5.94-1.22,5.94-7.49s-2.38-7.52-5.87-7.52h-1.91v15.01h1.84Z"/>
      <path class="cls-1" d="M188.03,4.39c.9-3.17,2.41-4.28,5.11-4.28,2.92,0,4.21,1.08,5.11,4.28l4.79,17.31c.11.36.11.54.11.76,0,1.44-1.19,2.66-2.66,2.66-1.22,0-2.27-.79-2.56-1.91l-1.01-4.03h-7.59l-1.01,4.03c-.29,1.12-1.33,1.91-2.56,1.91-1.48,0-2.66-1.22-2.66-2.66,0-.22,0-.4.11-.76l4.82-17.31ZM190.44,14.83h5.4l-2.52-9.97h-.36l-2.52,9.97Z"/>
      <path class="cls-1" d="M206.46,2.77c0-1.51,1.15-2.66,2.66-2.66s2.7,1.15,2.7,2.66v17.35h7.63c1.3,0,2.38,1.08,2.38,2.38s-1.08,2.38-2.38,2.38h-10.33c-1.51,0-2.66-1.15-2.66-2.66V2.77Z"/>
      <path class="cls-1" d="M223.81,12.63c0-6.59,2.88-12.63,10.29-12.63s10.33,6.05,10.33,12.63-2.88,12.6-10.33,12.6-10.29-6.01-10.29-12.6ZM239.11,12.63c0-3.38-1.12-7.78-5-7.78s-4.97,4.39-4.97,7.78c0,3.96,1.33,7.74,4.97,7.74s5-3.78,5-7.74Z"/>
      <path class="cls-1" d="M248.47,2.77c0-1.44,1.15-2.66,2.92-2.66,1.26,0,2.27.61,2.88,1.66l7.49,12.67h.14V2.77c0-1.44,1.22-2.66,2.66-2.66s2.66,1.19,2.66,2.66v19.69c0,1.37-1.08,2.66-2.92,2.66-1.26,0-2.3-.61-2.92-1.66l-7.42-12.31h-.14v11.3c0,1.44-1.19,2.66-2.7,2.66s-2.66-1.22-2.66-2.66V2.77Z"/>
      <path class="cls-1" d="M272.12,3.02c0-1.51,1.15-2.66,2.66-2.66h11.02c1.29,0,2.38,1.08,2.38,2.38s-1.08,2.38-2.38,2.38h-8.32v4.82h6.16c1.3,0,2.38,1.04,2.38,2.34s-1.08,2.38-2.38,2.38h-6.16v5.47h8.32c1.29,0,2.38,1.08,2.38,2.38s-1.08,2.38-2.38,2.38h-11.02c-1.51,0-2.66-1.15-2.66-2.66V3.02Z"/>
      <path class="cls-1" d="M299.62,3.02c0-1.44,1.19-2.66,2.66-2.66h5.4c5.36,0,9.54,3.28,9.54,8.64,0,4.75-4.17,8.6-9.54,8.6h-2.7v4.86c0,1.44-1.19,2.66-2.7,2.66s-2.66-1.22-2.66-2.66V3.02ZM307.62,12.89c2.56,0,4.25-1.84,4.25-3.89,0-2.56-1.69-3.89-4.25-3.89h-2.63v7.78h2.63Z"/>
      <path class="cls-1" d="M325.87,22.46c0,1.44-1.19,2.66-2.7,2.66s-2.66-1.22-2.66-2.66V3.02c0-1.44,1.19-2.66,2.66-2.66h6.3c4.82,0,8.71,3.35,8.71,8.17,0,2.99-1.66,5.11-3.96,6.26l3.89,6.12c.25.4.58,1.08.58,1.62,0,1.55-1.22,2.59-2.7,2.59-1.01,0-1.87-.72-2.3-1.4l-4.57-7.6h-3.24v6.34ZM325.87,11.99h3.28c2.23,0,3.71-1.37,3.71-3.46s-1.48-3.42-3.71-3.42h-3.28v6.88Z"/>
      <path class="cls-1" d="M341.6,12.63c0-6.59,2.88-12.63,10.29-12.63s10.33,6.05,10.33,12.63-2.88,12.6-10.33,12.6-10.29-6.01-10.29-12.6ZM356.9,12.63c0-3.38-1.12-7.78-5-7.78s-4.97,4.39-4.97,7.78c0,3.96,1.33,7.74,4.97,7.74s5-3.78,5-7.74Z"/>
      <path class="cls-1" d="M366.26,3.02c0-1.44,1.19-2.66,2.66-2.66h4.61c6.37,0,11.2,2.88,11.2,12.27s-5.4,12.24-11.27,12.24h-4.54c-1.48,0-2.66-1.19-2.66-2.66V3.02ZM373.46,20.12c3.49,0,5.94-1.22,5.94-7.49s-2.38-7.52-5.87-7.52h-1.91v15.01h1.84Z"/>
      <path class="cls-1" d="M388.69,2.77c0-1.48,1.19-2.66,2.66-2.66s2.66,1.19,2.66,2.66v13.21c0,2.3,1.15,4.39,3.89,4.39s3.89-2.09,3.89-4.39V2.77c0-1.48,1.19-2.66,2.66-2.66s2.66,1.19,2.66,2.66v13.14c0,4.97-3.02,9.32-9.21,9.32s-9.21-4.36-9.21-9.32V2.77Z"/>
      <path class="cls-1" d="M421.37,4.86c-3.64,0-5,3.74-5,7.99s1.37,7.52,5.47,7.52c1.15,0,2.2-.25,2.99-.54.86-.32,1.58-.68,2.41-.68,1.44,0,2.27,1.08,2.27,2.34,0,.72-.25,1.51-1.19,2.16-1.58,1.12-4.86,1.58-6.95,1.58-7.16,0-10.33-5.62-10.33-12.53s2.95-12.71,10.11-12.71c2.05,0,4,.5,5.22,1.04,1.8.79,2.88,2.09,3.02,4.39l.07,1.08c.14,2.09-.97,2.92-2.3,2.92-1.22,0-2.3-.76-2.56-2.41l-.22-1.44c-.79-.43-2.02-.72-3.02-.72Z"/>
      <path class="cls-1" d="M437.47,5.11h-4.03c-1.3,0-2.38-1.08-2.38-2.38s1.08-2.38,2.38-2.38h13.43c1.3,0,2.38,1.08,2.38,2.38s-1.08,2.38-2.38,2.38h-4.03v17.35c0,1.51-1.15,2.66-2.7,2.66s-2.66-1.15-2.66-2.66V5.11Z"/>
      <path class="cls-1" d="M459.64,20.52c2.23,0,3.42-.94,3.42-2.38,0-1.84-1.94-2.56-4.75-3.67-3.53-1.4-6.91-2.92-6.91-7.24,0-4.07,3.02-7.24,8.75-7.24,1.48,0,3.1.22,4.54.76,1.76.68,2.63,1.66,2.81,3.42l.14,1.48c.22,2.09-.97,2.92-2.3,2.92s-2.34-.9-2.56-2.41l-.18-1.15c-.9-.18-1.8-.29-2.63-.29-2.3,0-3.13.86-3.13,2.12,0,1.48,1.19,2.02,4.25,3.2,3.74,1.48,7.38,3.2,7.38,7.63s-3.63,7.56-8.82,7.56c-1.37,0-3.64-.22-5.26-.76-1.91-.65-2.77-1.69-2.92-3.6l-.11-1.58c-.14-2.23,1.12-2.92,2.27-2.92,1.3,0,2.41.86,2.59,2.41l.14,1.33c.94.29,2.48.4,3.28.4Z"/>
    </g>
  </g>
</svg>