<?xml version="1.0" encoding="UTF-8"?>
<svg id="Layer_2" data-name="Layer 2" xmlns="http://www.w3.org/2000/svg" viewBox="0 0 489.35 128.77">
  <defs>
    <style>
      .cls-1, .cls-2 {
        fill: none;
        stroke: #1b0400;
        stroke-linecap: round;
        stroke-linejoin: round;
      }

      .cls-2 {
        stroke-width: 1.4px;
      }

      .cls-3 {
        fill: #fcd03e;
      }

      .cls-3, .cls-4 {
        stroke-width: 0px;
      }

      .cls-4 {
        fill: #e95037;
      }
    </style>
  </defs>
  <g id="img">
    <g>
      <g>
        <path class="cls-3" d="M143.55,18.79l-27.4.26c-2.33,0-3.55,1.92-3.55,3.81s1.25,3.81,3.66,3.81l26.3-.31c.32,0,.52.02.64.05-.02.11-.07.27-.17.52-2.54,6.71-8.73,12.33-17.44,15.81-1.75.72-2.75,2.08-2.75,3.73,0,1.94,1.61,4.02,4.02,4.02.6,0,1.16-.16,1.67-.33,10.91-4.28,19.31-12.48,22.48-21.94.38-1.14.57-2.24.57-3.28,0-1.67-.56-3.1-1.6-4.14-1.38-1.37-3.56-2.05-6.42-2.01Z"/>
        <path class="cls-3" d="M121.3,15.07h22.67c2.36,0,3.6-1.92,3.6-3.81s-1.24-3.81-3.6-3.81h-22.67c-2.3,0-3.55,1.96-3.55,3.81s1.24,3.81,3.55,3.81Z"/>
        <path class="cls-3" d="M200.94,24.13c1.28-1.5,1.96-3.09,1.96-4.6,0-1.26-.47-2.39-1.35-3.26-1.19-1.17-3.03-1.77-5.28-1.75l-3.29.03c1.2-.72,2.06-2.04,2.06-3.45,0-1.07-.48-2.1-1.38-2.93-2.11-1.87-3.98-3.17-5.15-3.93-.74-.49-1.54-.74-2.37-.74-2.11,0-3.96,1.78-3.96,3.81,0,1.13.55,2.15,1.57,2.9,1.59,1.13,2.9,2.23,4.74,3.88.22.2.45.37.69.51l-13.96.14c-2.33,0-3.55,1.89-3.55,3.76s1.24,3.76,3.61,3.76l17.59-.25c-5.25,5.2-13.65,10.27-22.15,13.34-1.69.6-2.69,1.94-2.69,3.59,0,1.78,1.4,3.7,3.65,3.7.55,0,1.07-.09,1.54-.27,4.44-1.64,8.82-3.72,12.76-6.05l-.12,5.32v7.23c0,2.29,1.99,3.5,3.96,3.5,2.3,0,3.96-1.47,3.96-3.5v-17.88c2.74-2.21,5.15-4.51,7.15-6.85Z"/>
        <path class="cls-3" d="M200.33,29.17c-.59-.26-1.2-.4-1.81-.4-2.04,0-3.7,1.66-3.7,3.7,0,1.32.72,2.47,1.98,3.17,2.78,1.51,6.13,3.79,8.72,5.92.99.84,2,1.02,2.67,1.02,2.04,0,3.76-1.74,3.76-3.81,0-1.22-.57-2.36-1.61-3.21-2.73-2.29-6.65-4.79-10.01-6.39Z"/>
        <path class="cls-3" d="M254.87,12.29l-8.06.09c.61-1.21,1.14-2.37,1.62-3.52.21-.57.32-1.09.32-1.55,0-2.35-2.07-3.76-4.07-3.76-1.66,0-3.11.99-3.78,2.59-2.67,6.32-7.49,13.2-12.3,17.55-1.04.98-1.61,2.13-1.61,3.22,0,2.07,1.75,3.76,3.91,3.76,1.13,0,2.19-.43,3.06-1.24,2.88-2.58,5.76-5.9,8.34-9.63l11.12-.1c.17,0,.29,0,.37.02-.02.06-.04.14-.08.23-3.21,9.99-10.12,18.34-19.99,24.14-1.45.85-2.32,2.22-2.32,3.67,0,2.19,1.78,3.96,3.96,3.96.8,0,1.52-.2,2.2-.59,11.54-6.4,20.62-17.63,24.29-30.01.34-1.08.51-2.11.51-3.06,0-1.62-.51-2.94-1.5-3.93-1.28-1.26-3.29-1.9-6.01-1.86Z"/>
        <path class="cls-3" d="M287.83,13.64c1.83,1.04,4.52,2.88,6.25,4.27.75.63,1.64.96,2.56.96,2.17,0,4.07-1.92,4.07-4.12,0-1.16-.51-2.23-1.43-3.04-1.84-1.65-4.39-3.35-7.18-4.77-.67-.34-1.39-.52-2.01-.52-2.25,0-4.22,1.9-4.22,4.07,0,1.34.7,2.46,1.96,3.16Z"/>
        <path class="cls-3" d="M290.45,30.67c2.17,0,4.07-1.95,4.07-4.17,0-1.16-.51-2.24-1.43-3.04-1.95-1.75-4.52-3.45-7.23-4.77-.6-.3-1.32-.47-2.01-.47-2.26,0-4.17,1.84-4.17,4.02,0,1.32.72,2.48,1.96,3.16,1.7.97,4.4,2.84,6.25,4.32.75.63,1.64.96,2.56.96Z"/>
        <path class="cls-3" d="M317.29,17.8c-1.51,0-2.83.77-3.63,2.12-6.1,10.84-15.56,18.05-28.91,22.05-2.28.71-3.09,2.49-3.09,3.92,0,1.95,1.46,3.96,3.91,3.96.43,0,.94-.07,1.36-.19,14.95-4.24,27.3-13.68,33.89-25.91.39-.71.59-1.45.59-2.14,0-2.35-2.14-3.81-4.12-3.81Z"/>
        <path class="cls-3" d="M375.94,23.88h-37.96c-2.5,0-3.81,1.99-3.81,3.96s1.31,3.96,3.81,3.96h37.96c2.5,0,3.81-1.99,3.81-3.96s-1.31-3.96-3.81-3.96Z"/>
      </g>
      <g>
        <g>
          <path class="cls-1" d="M121.3,15.07h22.67c2.36,0,3.6-1.92,3.6-3.81s-1.24-3.81-3.6-3.81h-22.67c-2.3,0-3.55,1.96-3.55,3.81s1.24,3.81,3.55,3.81Z"/>
          <path class="cls-1" d="M149.97,20.8c-1.38-1.37-3.56-2.05-6.42-2.01l-27.4.26c-2.33,0-3.55,1.92-3.55,3.81s1.25,3.81,3.66,3.81l26.3-.31c.32,0,.52.02.64.05-.02.11-.07.27-.17.52-2.54,6.71-8.73,12.33-17.44,15.81-1.75.72-2.75,2.08-2.75,3.73,0,1.94,1.61,4.02,4.02,4.02.6,0,1.16-.16,1.67-.33,10.91-4.28,19.31-12.48,22.48-21.94.38-1.14.57-2.24.57-3.28,0-1.67-.56-3.1-1.6-4.14Z"/>
        </g>
        <g>
          <path class="cls-1" d="M200.94,24.13c1.28-1.5,1.96-3.09,1.96-4.6,0-1.26-.47-2.39-1.35-3.26-1.19-1.17-3.03-1.77-5.28-1.75l-3.29.03c1.2-.72,2.06-2.04,2.06-3.45,0-1.07-.48-2.1-1.38-2.93-2.11-1.87-3.98-3.17-5.15-3.93-.74-.49-1.54-.74-2.37-.74-2.11,0-3.96,1.78-3.96,3.81,0,1.13.55,2.15,1.57,2.9,1.59,1.13,2.9,2.23,4.74,3.88.22.2.45.37.69.51l-13.96.14c-2.33,0-3.55,1.89-3.55,3.76s1.24,3.76,3.61,3.76l17.59-.25c-5.25,5.2-13.65,10.27-22.15,13.34-1.69.6-2.69,1.94-2.69,3.59,0,1.78,1.4,3.7,3.65,3.7.55,0,1.07-.09,1.54-.27,4.44-1.64,8.82-3.72,12.76-6.05l-.12,5.32v7.23c0,2.29,1.99,3.5,3.96,3.5,2.3,0,3.96-1.47,3.96-3.5v-17.88c2.74-2.21,5.15-4.51,7.15-6.85Z"/>
          <path class="cls-1" d="M210.34,35.56c-2.73-2.29-6.65-4.79-10.01-6.39-.59-.26-1.2-.4-1.81-.4-2.04,0-3.7,1.66-3.7,3.7,0,1.32.72,2.47,1.98,3.17,2.78,1.51,6.13,3.79,8.72,5.92.99.84,2,1.02,2.67,1.02,2.04,0,3.76-1.74,3.76-3.81,0-1.22-.57-2.36-1.61-3.21Z"/>
        </g>
        <path class="cls-1" d="M260.88,14.14c-1.28-1.26-3.29-1.9-6.01-1.86l-8.06.09c.61-1.21,1.14-2.37,1.62-3.52.21-.57.32-1.09.32-1.55,0-2.35-2.07-3.76-4.07-3.76-1.66,0-3.11.99-3.78,2.59-2.67,6.32-7.49,13.2-12.3,17.55-1.04.98-1.61,2.13-1.61,3.22,0,2.07,1.75,3.76,3.91,3.76,1.13,0,2.19-.43,3.06-1.24,2.88-2.58,5.76-5.9,8.34-9.63l11.12-.1c.17,0,.29,0,.37.02-.02.06-.04.14-.08.23-3.21,9.99-10.12,18.34-19.99,24.14-1.45.85-2.32,2.22-2.32,3.67,0,2.19,1.78,3.96,3.96,3.96.8,0,1.52-.2,2.2-.59,11.54-6.4,20.62-17.63,24.29-30.01.34-1.08.51-2.11.51-3.06,0-1.62-.51-2.94-1.5-3.93Z"/>
        <g>
          <path class="cls-1" d="M287.83,13.64c1.83,1.04,4.52,2.88,6.25,4.27.75.63,1.64.96,2.56.96,2.17,0,4.07-1.92,4.07-4.12,0-1.16-.51-2.23-1.43-3.04-1.84-1.65-4.39-3.35-7.18-4.77-.67-.34-1.39-.52-2.01-.52-2.25,0-4.22,1.9-4.22,4.07,0,1.34.7,2.46,1.96,3.16Z"/>
          <path class="cls-1" d="M317.29,17.8c-1.51,0-2.83.77-3.63,2.12-6.1,10.84-15.56,18.05-28.91,22.05-2.28.71-3.09,2.49-3.09,3.92,0,1.95,1.46,3.96,3.91,3.96.43,0,.94-.07,1.36-.19,14.95-4.24,27.3-13.68,33.89-25.91.39-.71.59-1.45.59-2.14,0-2.35-2.14-3.81-4.12-3.81Z"/>
          <path class="cls-1" d="M290.45,30.67c2.17,0,4.07-1.95,4.07-4.17,0-1.16-.51-2.24-1.43-3.04-1.95-1.75-4.52-3.45-7.23-4.77-.6-.3-1.32-.47-2.01-.47-2.26,0-4.17,1.84-4.17,4.02,0,1.32.72,2.48,1.96,3.16,1.7.97,4.4,2.84,6.25,4.32.75.63,1.64.96,2.56.96Z"/>
        </g>
        <path class="cls-1" d="M375.94,23.88h-37.96c-2.5,0-3.81,1.99-3.81,3.96s1.31,3.96,3.81,3.96h37.96c2.5,0,3.81-1.99,3.81-3.96s-1.31-3.96-3.81-3.96Z"/>
      </g>
    </g>
    <g>
      <g>
        <path class="cls-4" d="M39.34,99.64c-1.33,1.09-2.06,2.53-2.06,4.06,0,2.62,2.3,4.84,5.03,4.84,1.26,0,2.54-.51,3.62-1.43,3.61-3.1,7.09-7.63,9.56-12.44.85-1.69,1.29-3.38,1.29-4.89,0-4.14-3.06-6.92-7.61-6.92-.71,0-1.43.07-2.22.21l-18.14,3.21v-12.26c0-2.69-2.17-4.65-5.15-4.65s-5.15,1.96-5.15,4.65v14.05l-10.92,1.92c-2.69.46-3.89,2.66-3.89,4.63,0,2.44,1.74,4.96,4.65,4.96.28,0,.6,0,1-.09l9.16-1.63v15.22c0,8.64,4.15,11.71,15.86,11.71,6.64,0,11.71-.4,16.96-1.35,2.94-.53,4.26-2.87,4.26-4.94,0-2.79-2-4.9-4.65-4.9-.31,0-.69,0-1.02.09-5.28.94-10.27,1.36-16.18,1.36-4.93,0-4.93-.48-4.93-3.16v-15.88l16.14-2.87c-1.47,2.35-3.43,4.62-5.61,6.5Z"/>
        <path class="cls-4" d="M120.47,94.01c-.24,0-.59,0-.96.1l-16.91,2.83-1.05-5.91,12.77-1.97c2.32-.33,3.87-2.14,3.87-4.51s-1.76-5.03-4.71-5.03c-.22,0-.53,0-.89.1l-12.69,1.96-1.57-8.82c-.4-2.33-2.39-3.89-4.94-3.89s-5.22,1.58-5.22,4.52c0,.24,0,.6.1.97l1.55,8.74-12.45,1.91c-2.36.33-3.88,2.12-3.88,4.57s1.72,5.03,4.59,5.03c.22,0,.53,0,.89-.1l12.56-1.96,1.06,6.01-16.98,2.84c-2.29.41-3.82,2.24-3.82,4.56,0,2.47,1.74,5.03,4.65,5.03.22,0,.54,0,.9-.1l16.91-2.83,2.76,15.35c.4,2.37,2.38,3.96,4.94,3.96s5.15-1.72,5.15-4.59c0-.24,0-.6-.1-.97l-2.74-15.44,17.04-2.84c2.28-.41,3.82-2.24,3.82-4.56,0-2.44-1.74-4.96-4.65-4.96Z"/>
        <path class="cls-4" d="M177.55,113.73h-5.55l.75-16.71v-.76c0-5.76-3.11-8.56-9.5-8.56h-18.77c-2.51,0-4.4,1.97-4.4,4.59,0,2.22,1.54,4.59,4.4,4.59h17.83c.58,0,.86.05.99.08.02.08.03.24.03.5v.24s-.75,16.02-.75,16.02h-23.77c-2.51,0-4.4,1.97-4.4,4.59,0,2.22,1.54,4.59,4.4,4.59h38.75c2.86,0,4.4-2.36,4.4-4.59,0-2.66-1.85-4.59-4.4-4.59Z"/>
        <path class="cls-4" d="M210.7,101.68v-24.76c0-3.14-2.72-4.84-5.28-4.84s-5.28,1.7-5.28,4.84v24.76c0,3.1,2.72,4.78,5.28,4.78s5.28-1.67,5.28-4.78Z"/>
        <path class="cls-4" d="M229.68,71.13c-3.1,0-5.34,1.98-5.34,4.71v18.21c0,12.25-4.01,19.22-13.85,24.05-2.01,1-3.16,2.69-3.16,4.62,0,2.83,2.39,5.22,5.22,5.22.75,0,1.57-.21,2.54-.65,13.34-6.36,19.82-17.06,19.82-32.73v-18.71c0-3.06-2.69-4.71-5.22-4.71Z"/>
        <path class="cls-4" d="M261.62,83.59h29.36c2.48,0,4.27-2.06,4.27-4.9s-1.8-4.9-4.27-4.9h-29.36c-2.44,0-4.21,2.06-4.21,4.9s1.77,4.9,4.21,4.9Z"/>
        <path class="cls-4" d="M298.92,88.65h-45.05c-2.44,0-4.21,2.04-4.21,4.84,0,2.4,1.45,4.84,4.21,4.84h17.66c-1.14,8.32-4.7,14-11.41,18.28-1.67,1.06-2.58,2.61-2.58,4.35,0,2.83,2.33,5.22,5.09,5.22.87,0,1.74-.25,2.73-.78,9.36-5.66,15.2-15.23,16.53-27.07h17.04c2.77,0,4.27-2.49,4.27-4.84,0-2.8-1.8-4.84-4.27-4.84Z"/>
        <path class="cls-4" d="M340.89,82.59c-1.51,0-2.86.73-3.68,1.95-5.6,7.84-15.01,15.78-24.55,20.71-1.69.88-2.69,2.46-2.69,4.23,0,2.55,2.1,4.71,4.59,4.71.86,0,1.68-.21,2.39-.61,3.52-1.81,7.09-4.03,10.48-6.5v16.78c0,2.44,2.01,4.21,4.78,4.21,2.34,0,4.71-1.45,4.71-4.21v-20.68c0-1.13-.45-2.14-1.21-2.88,3.61-3.36,6.71-6.82,9.26-10.31.59-.84.9-1.77.9-2.69,0-2.51-2.32-4.71-4.97-4.71Z"/>
        <path class="cls-4" d="M389.32,104.89c.57,0,1.13-.13,1.8-.43,5.04-2.49,10.05-6.18,13.74-10.11.68-.68,1.03-1.48,1.03-2.37,0-1.88-1.8-3.59-3.78-3.59-.96,0-1.85.44-2.65,1.31-2.67,3.17-6.75,6.28-11.5,8.76-1.32.66-2.04,1.73-2.04,3.03,0,1.64,1.37,3.4,3.4,3.4Z"/>
        <path class="cls-4" d="M417.74,88.88s0,0,0,0c-5.14-4.09-10.23-9.77-14-15.61.09-.29.14-.59.14-.88,0-2.14-2.03-3.46-3.9-3.46-1.55,0-2.84.84-3.54,2.31-3.14,6.8-7.97,13.42-12.92,17.73-1.02.89-1.56,1.96-1.56,3.08,0,1.91,1.7,3.52,3.71,3.52,1.04,0,2.08-.43,2.91-1.2,4.14-3.67,8.19-8.61,11.46-13.98,3.32,5.1,7.77,10.32,12.31,14.41.94.87,1.99,1.33,3.05,1.33,2.15,0,3.97-1.84,3.97-4.03,0-1.24-.56-2.35-1.63-3.22Z"/>
        <path class="cls-4" d="M364.94,77.86h13.1c1.94,0,2.96-1.74,2.96-3.46s-.93-3.46-2.96-3.46h-13.1c-1.9,0-2.89,1.74-2.89,3.46s1.01,3.46,2.89,3.46Z"/>
        <path class="cls-4" d="M389.32,115.66c.41,0,.84-.07,1.36-.22,6.91-2.41,14.36-6.85,19.47-11.58.77-.77,1.15-1.58,1.15-2.43,0-1.91-1.8-3.65-3.78-3.65-.91,0-1.77.37-2.43,1.02-3.94,3.82-10.52,7.79-16.76,10.09-1.78.62-2.42,2.11-2.42,3.31,0,1.7,1.27,3.46,3.4,3.46Z"/>
        <path class="cls-4" d="M378.04,88.96h-13.1c-1.9,0-2.89,1.74-2.89,3.46s1.01,3.46,2.89,3.46h13.1c1.94,0,2.96-1.74,2.96-3.46s-.93-3.46-2.96-3.46Z"/>
        <path class="cls-4" d="M413.07,107.61c-.83,0-1.64.31-2.39.93-5.59,4.52-14.87,8.91-23.63,11.18-1.85.51-2.95,1.82-2.95,3.51,0,1.79,1.34,3.65,3.59,3.65.31,0,.66-.07,1-.14,9.71-2.43,19.92-7.24,26.64-12.56.98-.72,1.53-1.71,1.53-2.8,0-2.01-1.76-3.78-3.78-3.78Z"/>
        <path class="cls-4" d="M384.09,83.41c0-1.81-1.06-3.65-3.08-3.65h-19.66c-1.98,0-3.02,1.84-3.02,3.65s1.04,3.65,3.02,3.65h19.66c2.02,0,3.08-1.84,3.08-3.65Z"/>
        <path class="cls-4" d="M364.94,97.78c-1.9,0-2.89,1.74-2.89,3.46s1.01,3.46,2.89,3.46h13.1c1.94,0,2.96-1.74,2.96-3.46s-.93-3.46-2.96-3.46h-13.1Z"/>
        <path class="cls-4" d="M375.02,106.6h-6.49c-4.81,0-6.86,1.88-6.86,6.3v7.62c0,4.41,2.05,6.3,6.86,6.3h6.49c4.88,0,6.86-1.82,6.86-6.3v-7.62c0-4.41-2.05-6.3-6.86-6.3ZM374.58,114.22v4.98c0,.86-.16.95-.82.95h-3.97c-.72,0-.82-.12-.82-.95v-4.98c0-.86.16-.95.82-.95h3.97c.67,0,.82.09.82.95Z"/>
        <path class="cls-4" d="M485.57,88.89h-14.31v-7.75c4.41-1.21,8.66-2.7,12-4.21,1.36-.65,2.17-1.88,2.17-3.29,0-1.85-1.4-3.84-3.65-3.84-.51,0-1.1.15-1.85.49-3.03,1.45-6.25,2.64-10.44,3.82-.62-.3-1.32-.47-2.01-.47-1.85,0-3.84.98-3.84,3.15v14.93c0,14.42-1.64,23.45-5.48,30.19-.06.11-.12.23-.17.34.03-.2.04-.41.04-.61,0-1.7-.94-3.53-3.02-3.53h-14.55c-1.89,0-2.21-.47-2.21-1.89v-4.87c.56.87,1.52,1.46,2.59,1.46s2.16-.63,2.93-1.73c1.15-1.63,2.17-3.31,3.09-5.07l-.22,5.6v3.09c0,2.08,1.82,3.21,3.52,3.21s3.52-1.12,3.52-3.21v-9.87c.71.65,1.35,1.33,1.89,2,.75.89,1.69,1.37,2.65,1.37,1.74,0,3.21-1.41,3.21-3.08,0-.93-.41-1.81-1.22-2.62-1.75-1.75-4.18-3.66-6.53-5.15v-2.31h5.49c1.99,0,2.89-1.7,2.89-3.27s-.91-3.27-2.89-3.27h-5.49v-3.27c.43,1.04,1.59,1.81,2.9,1.81,1.15,0,2.16-.62,2.77-1.71.91-1.71,1.75-3.87,2.57-6.63l.03-.13c.06-.27.11-.53.11-.85,0-1.84-1.59-2.83-3.08-2.83-1.39,0-2.54.86-2.94,2.19-.62,2.1-1.57,4.51-2.26,6.09l-.05.15s-.03.09-.04.13v-11.59c0-1.99-1.83-2.89-3.52-2.89s-3.52.91-3.52,2.89v11.11c-.5-2.03-1.42-4.37-2.13-5.91-.55-1.17-1.61-1.86-2.85-1.86-1.7,0-3.08,1.27-3.08,2.83,0,.36.07.72.22,1.19.55,1.41,1.3,3.72,1.75,5.36.47,1.81,1.86,2.45,3,2.45,1.3,0,2.69-.85,3.09-2.28v3.74h-5.3c-1.84,0-2.83,1.69-2.83,3.27s.99,3.27,2.89,3.27h3.77c-1.6,4.49-3.7,8.4-6.57,12.25-.13.18-.25.37-.36.57v-32.72c0-2.16-1.99-3.15-3.84-3.15s-3.84,1.08-3.84,3.15v42.34c0,5.46,2.48,7.68,8.56,7.68h15.88c1.25,0,2.09-.66,2.56-1.56-.02.17-.04.34-.04.5,0,1.94,1.6,3.4,3.71,3.4,1.6,0,2.94-.85,3.78-2.4,3.87-7.12,5.88-16.73,6.16-29.35h3.86v28.42c0,2.29,1.99,3.33,3.84,3.33s3.78-1.15,3.78-3.33v-28.42h2.9c2.02,0,3.08-1.74,3.08-3.46s-1.06-3.4-3.08-3.4Z"/>
      </g>
      <g>
        <path class="cls-2" d="M50.94,113.6c-.31,0-.69,0-1.02.09-5.28.94-10.27,1.36-16.18,1.36-4.93,0-4.93-.48-4.93-3.16v-15.88l16.14-2.87c-1.47,2.35-3.43,4.62-5.61,6.5-1.33,1.09-2.06,2.53-2.06,4.06,0,2.62,2.3,4.84,5.03,4.84,1.26,0,2.54-.51,3.62-1.43,3.61-3.1,7.09-7.63,9.56-12.44.85-1.69,1.29-3.38,1.29-4.89,0-4.14-3.06-6.92-7.61-6.92-.71,0-1.43.07-2.22.21l-18.14,3.21v-12.26c0-2.69-2.17-4.65-5.15-4.65s-5.15,1.96-5.15,4.65v14.05l-10.92,1.92c-2.69.46-3.89,2.66-3.89,4.63,0,2.44,1.74,4.96,4.65,4.96.28,0,.6,0,1-.09l9.16-1.63v15.22c0,8.64,4.15,11.71,15.86,11.71,6.64,0,11.71-.4,16.96-1.35,2.94-.53,4.26-2.87,4.26-4.94,0-2.79-2-4.9-4.65-4.9Z"/>
        <path class="cls-2" d="M120.47,94.01c-.24,0-.59,0-.96.1l-16.91,2.83-1.05-5.91,12.77-1.97c2.32-.33,3.87-2.14,3.87-4.51s-1.76-5.03-4.71-5.03c-.22,0-.53,0-.89.1l-12.69,1.96-1.57-8.82c-.4-2.33-2.39-3.89-4.94-3.89s-5.22,1.58-5.22,4.52c0,.24,0,.6.1.97l1.55,8.74-12.45,1.91c-2.36.33-3.88,2.12-3.88,4.57s1.72,5.03,4.59,5.03c.22,0,.53,0,.89-.1l12.56-1.96,1.06,6.01-16.98,2.84c-2.29.41-3.82,2.24-3.82,4.56,0,2.47,1.74,5.03,4.65,5.03.22,0,.54,0,.9-.1l16.91-2.83,2.76,15.35c.4,2.37,2.38,3.96,4.94,3.96s5.15-1.72,5.15-4.59c0-.24,0-.6-.1-.97l-2.74-15.44,17.04-2.84c2.28-.41,3.82-2.24,3.82-4.56,0-2.44-1.74-4.96-4.65-4.96Z"/>
        <path class="cls-2" d="M177.55,113.73h-5.55l.75-16.71v-.76c0-5.76-3.11-8.56-9.5-8.56h-18.77c-2.51,0-4.4,1.97-4.4,4.59,0,2.22,1.54,4.59,4.4,4.59h17.83c.58,0,.86.05.99.08.02.08.03.24.03.5v.24s-.75,16.02-.75,16.02h-23.77c-2.51,0-4.4,1.97-4.4,4.59,0,2.22,1.54,4.59,4.4,4.59h38.75c2.86,0,4.4-2.36,4.4-4.59,0-2.66-1.85-4.59-4.4-4.59Z"/>
        <g>
          <path class="cls-2" d="M210.7,101.68v-24.76c0-3.14-2.72-4.84-5.28-4.84s-5.28,1.7-5.28,4.84v24.76c0,3.1,2.72,4.78,5.28,4.78s5.28-1.67,5.28-4.78Z"/>
          <path class="cls-2" d="M229.68,71.13c-3.1,0-5.34,1.98-5.34,4.71v18.21c0,12.25-4.01,19.22-13.85,24.05-2.01,1-3.16,2.69-3.16,4.62,0,2.83,2.39,5.22,5.22,5.22.75,0,1.57-.21,2.54-.65,13.34-6.36,19.82-17.06,19.82-32.73v-18.71c0-3.06-2.69-4.71-5.22-4.71Z"/>
        </g>
        <g>
          <path class="cls-2" d="M298.92,88.65h-45.05c-2.44,0-4.21,2.04-4.21,4.84,0,2.4,1.45,4.84,4.21,4.84h17.66c-1.14,8.32-4.7,14-11.41,18.28-1.67,1.06-2.58,2.61-2.58,4.35,0,2.83,2.33,5.22,5.09,5.22.87,0,1.74-.25,2.73-.78,9.36-5.66,15.2-15.23,16.53-27.07h17.04c2.77,0,4.27-2.49,4.27-4.84,0-2.8-1.8-4.84-4.27-4.84Z"/>
          <path class="cls-2" d="M261.62,83.59h29.36c2.48,0,4.27-2.06,4.27-4.9s-1.8-4.9-4.27-4.9h-29.36c-2.44,0-4.21,2.06-4.21,4.9s1.77,4.9,4.21,4.9Z"/>
        </g>
        <path class="cls-2" d="M340.89,82.59c-1.51,0-2.86.73-3.68,1.95-5.6,7.84-15.01,15.78-24.55,20.71-1.69.88-2.69,2.46-2.69,4.23,0,2.55,2.1,4.71,4.59,4.71.86,0,1.68-.21,2.39-.61,3.52-1.81,7.09-4.03,10.48-6.5v16.78c0,2.44,2.01,4.21,4.78,4.21,2.34,0,4.71-1.45,4.71-4.21v-20.68c0-1.13-.45-2.14-1.21-2.88,3.61-3.36,6.71-6.82,9.26-10.31.59-.84.9-1.77.9-2.69,0-2.51-2.32-4.71-4.97-4.71Z"/>
        <g>
          <path class="cls-2" d="M364.94,97.78c-1.9,0-2.89,1.74-2.89,3.46s1.01,3.46,2.89,3.46h13.1c1.94,0,2.96-1.74,2.96-3.46s-.93-3.46-2.96-3.46h-13.1Z"/>
          <path class="cls-2" d="M364.94,77.86h13.1c1.94,0,2.96-1.74,2.96-3.46s-.93-3.46-2.96-3.46h-13.1c-1.9,0-2.89,1.74-2.89,3.46s1.01,3.46,2.89,3.46Z"/>
          <path class="cls-2" d="M384.09,83.41c0-1.81-1.06-3.65-3.08-3.65h-19.66c-1.98,0-3.02,1.84-3.02,3.65s1.04,3.65,3.02,3.65h19.66c2.02,0,3.08-1.84,3.08-3.65Z"/>
          <path class="cls-2" d="M378.04,88.96h-13.1c-1.9,0-2.89,1.74-2.89,3.46s1.01,3.46,2.89,3.46h13.1c1.94,0,2.96-1.74,2.96-3.46s-.93-3.46-2.96-3.46Z"/>
          <path class="cls-2" d="M389.32,104.89c.57,0,1.13-.13,1.8-.43,5.04-2.49,10.05-6.18,13.74-10.11.68-.68,1.03-1.48,1.03-2.37,0-1.88-1.8-3.59-3.78-3.59-.96,0-1.85.44-2.65,1.31-2.67,3.17-6.75,6.28-11.5,8.76-1.32.66-2.04,1.73-2.04,3.03,0,1.64,1.37,3.4,3.4,3.4Z"/>
          <path class="cls-2" d="M417.74,88.88s0,0,0,0c-5.14-4.09-10.23-9.77-14-15.61.09-.29.14-.59.14-.88,0-2.14-2.03-3.46-3.9-3.46-1.55,0-2.84.84-3.54,2.31-3.14,6.8-7.97,13.42-12.92,17.73-1.02.89-1.56,1.96-1.56,3.08,0,1.91,1.7,3.52,3.71,3.52,1.04,0,2.08-.43,2.91-1.2,4.14-3.67,8.19-8.61,11.46-13.98,3.32,5.1,7.77,10.32,12.31,14.41.94.87,1.99,1.33,3.05,1.33,2.15,0,3.97-1.84,3.97-4.03,0-1.24-.56-2.35-1.63-3.22Z"/>
          <path class="cls-2" d="M389.32,115.66c.41,0,.84-.07,1.36-.22,6.91-2.41,14.36-6.85,19.47-11.58.77-.77,1.15-1.58,1.15-2.43,0-1.91-1.8-3.65-3.78-3.65-.91,0-1.77.37-2.43,1.02-3.94,3.82-10.52,7.79-16.76,10.09-1.78.62-2.42,2.11-2.42,3.31,0,1.7,1.27,3.46,3.4,3.46Z"/>
          <path class="cls-2" d="M375.02,106.6h-6.49c-4.81,0-6.86,1.88-6.86,6.3v7.62c0,4.41,2.05,6.3,6.86,6.3h6.49c4.88,0,6.86-1.82,6.86-6.3v-7.62c0-4.41-2.05-6.3-6.86-6.3ZM374.58,114.22v4.98c0,.86-.16.95-.82.95h-3.97c-.72,0-.82-.12-.82-.95v-4.98c0-.86.16-.95.82-.95h3.97c.67,0,.82.09.82.95Z"/>
          <path class="cls-2" d="M413.07,107.61c-.83,0-1.64.31-2.39.93-5.59,4.52-14.87,8.91-23.63,11.18-1.85.51-2.95,1.82-2.95,3.51,0,1.79,1.34,3.65,3.59,3.65.31,0,.66-.07,1-.14,9.71-2.43,19.92-7.24,26.64-12.56.98-.72,1.53-1.71,1.53-2.8,0-2.01-1.76-3.78-3.78-3.78Z"/>
        </g>
        <path class="cls-2" d="M485.57,88.89h-14.31v-7.75c4.41-1.21,8.66-2.7,12-4.21,1.36-.65,2.17-1.88,2.17-3.29,0-1.85-1.4-3.84-3.65-3.84-.51,0-1.1.15-1.85.49-3.03,1.45-6.25,2.64-10.44,3.82-.62-.3-1.32-.47-2.01-.47-1.85,0-3.84.98-3.84,3.15v14.93c0,14.42-1.64,23.45-5.48,30.19-.06.11-.12.23-.17.34.03-.2.04-.41.04-.61,0-1.7-.94-3.53-3.02-3.53h-14.55c-1.89,0-2.21-.47-2.21-1.89v-4.87c.56.87,1.52,1.46,2.59,1.46s2.16-.63,2.93-1.73c1.15-1.63,2.17-3.31,3.09-5.07l-.22,5.6v3.09c0,2.08,1.82,3.21,3.52,3.21s3.52-1.12,3.52-3.21v-9.87c.71.65,1.35,1.33,1.89,2,.75.89,1.69,1.37,2.65,1.37,1.74,0,3.21-1.41,3.21-3.08,0-.93-.41-1.81-1.22-2.62-1.75-1.75-4.18-3.66-6.53-5.15v-2.31h5.49c1.99,0,2.89-1.7,2.89-3.27s-.91-3.27-2.89-3.27h-5.49v-3.27c.43,1.04,1.59,1.81,2.9,1.81,1.15,0,2.16-.62,2.77-1.71.91-1.71,1.75-3.87,2.57-6.63l.03-.13c.06-.27.11-.53.11-.85,0-1.84-1.59-2.83-3.08-2.83-1.39,0-2.54.86-2.94,2.19-.62,2.1-1.57,4.51-2.26,6.09l-.05.15s-.03.09-.04.13v-11.59c0-1.99-1.83-2.89-3.52-2.89s-3.52.91-3.52,2.89v11.11c-.5-2.03-1.42-4.37-2.13-5.91-.55-1.17-1.61-1.86-2.85-1.86-1.7,0-3.08,1.27-3.08,2.83,0,.36.07.72.22,1.19.55,1.41,1.3,3.72,1.75,5.36.47,1.81,1.86,2.45,3,2.45,1.3,0,2.69-.85,3.09-2.28v3.74h-5.3c-1.84,0-2.83,1.69-2.83,3.27s.99,3.27,2.89,3.27h3.77c-1.6,4.49-3.7,8.4-6.57,12.25-.13.18-.25.37-.36.57v-32.72c0-2.16-1.99-3.15-3.84-3.15s-3.84,1.08-3.84,3.15v42.34c0,5.46,2.48,7.68,8.56,7.68h15.88c1.25,0,2.09-.66,2.56-1.56-.02.17-.04.34-.04.5,0,1.94,1.6,3.4,3.71,3.4,1.6,0,2.94-.85,3.78-2.4,3.87-7.12,5.88-16.73,6.16-29.35h3.86v28.42c0,2.29,1.99,3.33,3.84,3.33s3.78-1.15,3.78-3.33v-28.42h2.9c2.02,0,3.08-1.74,3.08-3.46s-1.06-3.4-3.08-3.4Z"/>
      </g>
    </g>
    <g>
      <g>
        <path class="cls-4" d="M140.55,15.79l-27.4.26c-2.33,0-3.55,1.92-3.55,3.81s1.25,3.81,3.66,3.81l26.3-.31c.32,0,.52.02.64.05-.02.11-.07.27-.17.52-2.54,6.71-8.73,12.33-17.44,15.81-1.75.72-2.75,2.08-2.75,3.73,0,1.94,1.61,4.02,4.02,4.02.6,0,1.16-.16,1.67-.33,10.91-4.28,19.31-12.48,22.48-21.94.38-1.14.57-2.24.57-3.28,0-1.67-.56-3.1-1.6-4.14-1.38-1.37-3.56-2.05-6.42-2.01Z"/>
        <path class="cls-4" d="M118.3,12.07h22.67c2.36,0,3.6-1.92,3.6-3.81s-1.24-3.81-3.6-3.81h-22.67c-2.3,0-3.55,1.96-3.55,3.81s1.24,3.81,3.55,3.81Z"/>
        <path class="cls-4" d="M197.94,21.13c1.28-1.5,1.96-3.09,1.96-4.6,0-1.26-.47-2.39-1.35-3.26-1.19-1.17-3.03-1.77-5.28-1.75l-3.29.03c1.2-.72,2.06-2.04,2.06-3.45,0-1.07-.48-2.1-1.38-2.93-2.11-1.87-3.98-3.17-5.15-3.93-.74-.49-1.54-.74-2.37-.74-2.11,0-3.96,1.78-3.96,3.81,0,1.13.55,2.15,1.57,2.9,1.59,1.13,2.9,2.23,4.74,3.88.22.2.45.37.69.51l-13.96.14c-2.33,0-3.55,1.89-3.55,3.76s1.24,3.76,3.61,3.76l17.59-.25c-5.25,5.2-13.65,10.27-22.15,13.34-1.69.6-2.69,1.94-2.69,3.59,0,1.78,1.4,3.7,3.65,3.7.55,0,1.07-.09,1.54-.27,4.44-1.64,8.82-3.72,12.76-6.05l-.12,5.32v7.23c0,2.29,1.99,3.5,3.96,3.5,2.3,0,3.96-1.47,3.96-3.5v-17.88c2.74-2.21,5.15-4.51,7.15-6.85Z"/>
        <path class="cls-4" d="M197.33,26.17c-.59-.26-1.2-.4-1.81-.4-2.04,0-3.7,1.66-3.7,3.7,0,1.32.72,2.47,1.98,3.17,2.78,1.51,6.13,3.79,8.72,5.92.99.84,2,1.02,2.67,1.02,2.04,0,3.76-1.74,3.76-3.81,0-1.22-.57-2.36-1.61-3.21-2.73-2.29-6.65-4.79-10.01-6.39Z"/>
        <path class="cls-4" d="M251.87,9.29l-8.06.09c.61-1.21,1.14-2.37,1.62-3.52.21-.57.32-1.09.32-1.55,0-2.35-2.07-3.76-4.07-3.76-1.66,0-3.11.99-3.78,2.59-2.67,6.32-7.49,13.2-12.3,17.55-1.04.98-1.61,2.13-1.61,3.22,0,2.07,1.75,3.76,3.91,3.76,1.13,0,2.19-.43,3.06-1.24,2.88-2.58,5.76-5.9,8.34-9.63l11.12-.1c.17,0,.29,0,.37.02-.02.06-.04.14-.08.23-3.21,9.99-10.12,18.34-19.99,24.14-1.45.85-2.32,2.22-2.32,3.67,0,2.19,1.78,3.96,3.96,3.96.8,0,1.52-.2,2.2-.59,11.54-6.4,20.62-17.63,24.29-30.01.34-1.08.51-2.11.51-3.06,0-1.62-.51-2.94-1.5-3.93-1.28-1.26-3.29-1.9-6.01-1.86Z"/>
        <path class="cls-4" d="M284.83,10.64c1.83,1.04,4.52,2.88,6.25,4.27.75.63,1.64.96,2.56.96,2.17,0,4.07-1.92,4.07-4.12,0-1.16-.51-2.23-1.43-3.04-1.84-1.65-4.39-3.35-7.18-4.77-.67-.34-1.39-.52-2.01-.52-2.25,0-4.22,1.9-4.22,4.07,0,1.34.7,2.46,1.96,3.16Z"/>
        <path class="cls-4" d="M287.45,27.67c2.17,0,4.07-1.95,4.07-4.17,0-1.16-.51-2.24-1.43-3.04-1.95-1.75-4.52-3.45-7.23-4.77-.6-.3-1.32-.47-2.01-.47-2.26,0-4.17,1.84-4.17,4.02,0,1.32.72,2.48,1.96,3.16,1.7.97,4.4,2.84,6.25,4.32.75.63,1.64.96,2.56.96Z"/>
        <path class="cls-4" d="M314.29,14.8c-1.51,0-2.83.77-3.63,2.12-6.1,10.84-15.56,18.05-28.91,22.05-2.28.71-3.09,2.49-3.09,3.92,0,1.95,1.46,3.96,3.91,3.96.43,0,.94-.07,1.36-.19,14.95-4.24,27.3-13.68,33.89-25.91.39-.71.59-1.45.59-2.14,0-2.35-2.14-3.81-4.12-3.81Z"/>
        <path class="cls-4" d="M372.94,20.88h-37.96c-2.5,0-3.81,1.99-3.81,3.96s1.31,3.96,3.81,3.96h37.96c2.5,0,3.81-1.99,3.81-3.96s-1.31-3.96-3.81-3.96Z"/>
      </g>
      <g>
        <g>
          <path class="cls-1" d="M118.3,12.07h22.67c2.36,0,3.6-1.92,3.6-3.81s-1.24-3.81-3.6-3.81h-22.67c-2.3,0-3.55,1.96-3.55,3.81s1.24,3.81,3.55,3.81Z"/>
          <path class="cls-1" d="M146.97,17.8c-1.38-1.37-3.56-2.05-6.42-2.01l-27.4.26c-2.33,0-3.55,1.92-3.55,3.81s1.25,3.81,3.66,3.81l26.3-.31c.32,0,.52.02.64.05-.02.11-.07.27-.17.52-2.54,6.71-8.73,12.33-17.44,15.81-1.75.72-2.75,2.08-2.75,3.73,0,1.94,1.61,4.02,4.02,4.02.6,0,1.16-.16,1.67-.33,10.91-4.28,19.31-12.48,22.48-21.94.38-1.14.57-2.24.57-3.28,0-1.67-.56-3.1-1.6-4.14Z"/>
        </g>
        <g>
          <path class="cls-1" d="M197.94,21.13c1.28-1.5,1.96-3.09,1.96-4.6,0-1.26-.47-2.39-1.35-3.26-1.19-1.17-3.03-1.77-5.28-1.75l-3.29.03c1.2-.72,2.06-2.04,2.06-3.45,0-1.07-.48-2.1-1.38-2.93-2.11-1.87-3.98-3.17-5.15-3.93-.74-.49-1.54-.74-2.37-.74-2.11,0-3.96,1.78-3.96,3.81,0,1.13.55,2.15,1.57,2.9,1.59,1.13,2.9,2.23,4.74,3.88.22.2.45.37.69.51l-13.96.14c-2.33,0-3.55,1.89-3.55,3.76s1.24,3.76,3.61,3.76l17.59-.25c-5.25,5.2-13.65,10.27-22.15,13.34-1.69.6-2.69,1.94-2.69,3.59,0,1.78,1.4,3.7,3.65,3.7.55,0,1.07-.09,1.54-.27,4.44-1.64,8.82-3.72,12.76-6.05l-.12,5.32v7.23c0,2.29,1.99,3.5,3.96,3.5,2.3,0,3.96-1.47,3.96-3.5v-17.88c2.74-2.21,5.15-4.51,7.15-6.85Z"/>
          <path class="cls-1" d="M207.34,32.56c-2.73-2.29-6.65-4.79-10.01-6.39-.59-.26-1.2-.4-1.81-.4-2.04,0-3.7,1.66-3.7,3.7,0,1.32.72,2.47,1.98,3.17,2.78,1.51,6.13,3.79,8.72,5.92.99.84,2,1.02,2.67,1.02,2.04,0,3.76-1.74,3.76-3.81,0-1.22-.57-2.36-1.61-3.21Z"/>
        </g>
        <path class="cls-1" d="M257.88,11.14c-1.28-1.26-3.29-1.9-6.01-1.86l-8.06.09c.61-1.21,1.14-2.37,1.62-3.52.21-.57.32-1.09.32-1.55,0-2.35-2.07-3.76-4.07-3.76-1.66,0-3.11.99-3.78,2.59-2.67,6.32-7.49,13.2-12.3,17.55-1.04.98-1.61,2.13-1.61,3.22,0,2.07,1.75,3.76,3.91,3.76,1.13,0,2.19-.43,3.06-1.24,2.88-2.58,5.76-5.9,8.34-9.63l11.12-.1c.17,0,.29,0,.37.02-.02.06-.04.14-.08.23-3.21,9.99-10.12,18.34-19.99,24.14-1.45.85-2.32,2.22-2.32,3.67,0,2.19,1.78,3.96,3.96,3.96.8,0,1.52-.2,2.2-.59,11.54-6.4,20.62-17.63,24.29-30.01.34-1.08.51-2.11.51-3.06,0-1.62-.51-2.94-1.5-3.93Z"/>
        <g>
          <path class="cls-1" d="M284.83,10.64c1.83,1.04,4.52,2.88,6.25,4.27.75.63,1.64.96,2.56.96,2.17,0,4.07-1.92,4.07-4.12,0-1.16-.51-2.23-1.43-3.04-1.84-1.65-4.39-3.35-7.18-4.77-.67-.34-1.39-.52-2.01-.52-2.25,0-4.22,1.9-4.22,4.07,0,1.34.7,2.46,1.96,3.16Z"/>
          <path class="cls-1" d="M314.29,14.8c-1.51,0-2.83.77-3.63,2.12-6.1,10.84-15.56,18.05-28.91,22.05-2.28.71-3.09,2.49-3.09,3.92,0,1.95,1.46,3.96,3.91,3.96.43,0,.94-.07,1.36-.19,14.95-4.24,27.3-13.68,33.89-25.91.39-.71.59-1.45.59-2.14,0-2.35-2.14-3.81-4.12-3.81Z"/>
          <path class="cls-1" d="M287.45,27.67c2.17,0,4.07-1.95,4.07-4.17,0-1.16-.51-2.24-1.43-3.04-1.95-1.75-4.52-3.45-7.23-4.77-.6-.3-1.32-.47-2.01-.47-2.26,0-4.17,1.84-4.17,4.02,0,1.32.72,2.48,1.96,3.16,1.7.97,4.4,2.84,6.25,4.32.75.63,1.64.96,2.56.96Z"/>
        </g>
        <path class="cls-1" d="M372.94,20.88h-37.96c-2.5,0-3.81,1.99-3.81,3.96s1.31,3.96,3.81,3.96h37.96c2.5,0,3.81-1.99,3.81-3.96s-1.31-3.96-3.81-3.96Z"/>
      </g>
    </g>
    <g>
      <g>
        <path class="cls-3" d="M36.34,94.64c-1.33,1.09-2.06,2.53-2.06,4.06,0,2.62,2.3,4.84,5.03,4.84,1.26,0,2.54-.51,3.62-1.43,3.61-3.1,7.09-7.63,9.56-12.44.85-1.69,1.29-3.38,1.29-4.89,0-4.14-3.06-6.92-7.61-6.92-.71,0-1.43.07-2.22.21l-18.14,3.21v-12.26c0-2.69-2.17-4.65-5.15-4.65s-5.15,1.96-5.15,4.65v14.05l-10.92,1.92c-2.69.46-3.89,2.66-3.89,4.63,0,2.44,1.74,4.96,4.65,4.96.28,0,.6,0,1-.09l9.16-1.63v15.22c0,8.64,4.15,11.71,15.86,11.71,6.64,0,11.71-.4,16.96-1.35,2.94-.53,4.26-2.87,4.26-4.94,0-2.79-2-4.9-4.65-4.9-.31,0-.69,0-1.02.09-5.28.94-10.27,1.36-16.18,1.36-4.93,0-4.93-.48-4.93-3.16v-15.88l16.14-2.87c-1.47,2.35-3.43,4.62-5.61,6.5Z"/>
        <path class="cls-3" d="M117.47,89.01c-.24,0-.59,0-.96.1l-16.91,2.83-1.05-5.91,12.77-1.97c2.32-.33,3.87-2.14,3.87-4.51s-1.76-5.03-4.71-5.03c-.22,0-.53,0-.89.1l-12.69,1.96-1.57-8.82c-.4-2.33-2.39-3.89-4.94-3.89s-5.22,1.58-5.22,4.52c0,.24,0,.6.1.97l1.55,8.74-12.45,1.91c-2.36.33-3.88,2.12-3.88,4.57s1.72,5.03,4.59,5.03c.22,0,.53,0,.89-.1l12.56-1.96,1.06,6.01-16.98,2.84c-2.29.41-3.82,2.24-3.82,4.56,0,2.47,1.74,5.03,4.65,5.03.22,0,.54,0,.9-.1l16.91-2.83,2.76,15.35c.4,2.37,2.38,3.96,4.94,3.96s5.15-1.72,5.15-4.59c0-.24,0-.6-.1-.97l-2.74-15.44,17.04-2.84c2.28-.41,3.82-2.24,3.82-4.56,0-2.44-1.74-4.96-4.65-4.96Z"/>
        <path class="cls-3" d="M174.55,108.73h-5.55l.75-16.71v-.76c0-5.76-3.11-8.56-9.5-8.56h-18.77c-2.51,0-4.4,1.97-4.4,4.59,0,2.22,1.54,4.59,4.4,4.59h17.83c.58,0,.86.05.99.08.02.08.03.24.03.5v.24s-.75,16.02-.75,16.02h-23.77c-2.51,0-4.4,1.97-4.4,4.59,0,2.22,1.54,4.59,4.4,4.59h38.75c2.86,0,4.4-2.36,4.4-4.59,0-2.66-1.85-4.59-4.4-4.59Z"/>
        <path class="cls-3" d="M207.7,96.68v-24.76c0-3.14-2.72-4.84-5.28-4.84s-5.28,1.7-5.28,4.84v24.76c0,3.1,2.72,4.78,5.28,4.78s5.28-1.67,5.28-4.78Z"/>
        <path class="cls-3" d="M226.68,66.13c-3.1,0-5.34,1.98-5.34,4.71v18.21c0,12.25-4.01,19.22-13.85,24.05-2.01,1-3.16,2.69-3.16,4.62,0,2.83,2.39,5.22,5.22,5.22.75,0,1.57-.21,2.54-.65,13.34-6.36,19.82-17.06,19.82-32.73v-18.71c0-3.06-2.69-4.71-5.22-4.71Z"/>
        <path class="cls-3" d="M258.62,78.59h29.36c2.48,0,4.27-2.06,4.27-4.9s-1.8-4.9-4.27-4.9h-29.36c-2.44,0-4.21,2.06-4.21,4.9s1.77,4.9,4.21,4.9Z"/>
        <path class="cls-3" d="M295.92,83.65h-45.05c-2.44,0-4.21,2.04-4.21,4.84,0,2.4,1.45,4.84,4.21,4.84h17.66c-1.14,8.32-4.7,14-11.41,18.28-1.67,1.06-2.58,2.61-2.58,4.35,0,2.83,2.33,5.22,5.09,5.22.87,0,1.74-.25,2.73-.78,9.36-5.66,15.2-15.23,16.53-27.07h17.04c2.77,0,4.27-2.49,4.27-4.84,0-2.8-1.8-4.84-4.27-4.84Z"/>
        <path class="cls-3" d="M337.89,77.59c-1.51,0-2.86.73-3.68,1.95-5.6,7.84-15.01,15.78-24.55,20.71-1.69.88-2.69,2.46-2.69,4.23,0,2.55,2.1,4.71,4.59,4.71.86,0,1.68-.21,2.39-.61,3.52-1.81,7.09-4.03,10.48-6.5v16.78c0,2.44,2.01,4.21,4.78,4.21,2.34,0,4.71-1.45,4.71-4.21v-20.68c0-1.13-.45-2.14-1.21-2.88,3.61-3.36,6.71-6.82,9.26-10.31.59-.84.9-1.77.9-2.69,0-2.51-2.32-4.71-4.97-4.71Z"/>
        <path class="cls-3" d="M386.32,99.89c.57,0,1.13-.13,1.8-.43,5.04-2.49,10.05-6.18,13.74-10.11.68-.68,1.03-1.48,1.03-2.37,0-1.88-1.8-3.59-3.78-3.59-.96,0-1.85.44-2.65,1.31-2.67,3.17-6.75,6.28-11.5,8.76-1.32.66-2.04,1.73-2.04,3.03,0,1.64,1.37,3.4,3.4,3.4Z"/>
        <path class="cls-3" d="M414.74,83.88s0,0,0,0c-5.14-4.09-10.23-9.77-14-15.61.09-.29.14-.59.14-.88,0-2.14-2.03-3.46-3.9-3.46-1.55,0-2.84.84-3.54,2.31-3.14,6.8-7.97,13.42-12.92,17.73-1.02.89-1.56,1.96-1.56,3.08,0,1.91,1.7,3.52,3.71,3.52,1.04,0,2.08-.43,2.91-1.2,4.14-3.67,8.19-8.61,11.46-13.98,3.32,5.1,7.77,10.32,12.31,14.41.94.87,1.99,1.33,3.05,1.33,2.15,0,3.97-1.84,3.97-4.03,0-1.24-.56-2.35-1.63-3.22Z"/>
        <path class="cls-3" d="M361.94,72.86h13.1c1.94,0,2.96-1.74,2.96-3.46s-.93-3.46-2.96-3.46h-13.1c-1.9,0-2.89,1.74-2.89,3.46s1.01,3.46,2.89,3.46Z"/>
        <path class="cls-3" d="M386.32,110.66c.41,0,.84-.07,1.36-.22,6.91-2.41,14.36-6.85,19.47-11.58.77-.77,1.15-1.58,1.15-2.43,0-1.91-1.8-3.65-3.78-3.65-.91,0-1.77.37-2.43,1.02-3.94,3.82-10.52,7.79-16.76,10.09-1.78.62-2.42,2.11-2.42,3.31,0,1.7,1.27,3.46,3.4,3.46Z"/>
        <path class="cls-3" d="M375.04,83.96h-13.1c-1.9,0-2.89,1.74-2.89,3.46s1.01,3.46,2.89,3.46h13.1c1.94,0,2.96-1.74,2.96-3.46s-.93-3.46-2.96-3.46Z"/>
        <path class="cls-3" d="M410.07,102.61c-.83,0-1.64.31-2.39.93-5.59,4.52-14.87,8.91-23.63,11.18-1.85.51-2.95,1.82-2.95,3.51,0,1.79,1.34,3.65,3.59,3.65.31,0,.66-.07,1-.14,9.71-2.43,19.92-7.24,26.64-12.56.98-.72,1.53-1.71,1.53-2.8,0-2.01-1.76-3.78-3.78-3.78Z"/>
        <path class="cls-3" d="M381.09,78.41c0-1.81-1.06-3.65-3.08-3.65h-19.66c-1.98,0-3.02,1.84-3.02,3.65s1.04,3.65,3.02,3.65h19.66c2.02,0,3.08-1.84,3.08-3.65Z"/>
        <path class="cls-3" d="M361.94,92.78c-1.9,0-2.89,1.74-2.89,3.46s1.01,3.46,2.89,3.46h13.1c1.94,0,2.96-1.74,2.96-3.46s-.93-3.46-2.96-3.46h-13.1Z"/>
        <path class="cls-3" d="M372.02,101.6h-6.49c-4.81,0-6.86,1.88-6.86,6.3v7.62c0,4.41,2.05,6.3,6.86,6.3h6.49c4.88,0,6.86-1.82,6.86-6.3v-7.62c0-4.41-2.05-6.3-6.86-6.3ZM371.58,109.22v4.98c0,.86-.16.95-.82.95h-3.97c-.72,0-.82-.12-.82-.95v-4.98c0-.86.16-.95.82-.95h3.97c.67,0,.82.09.82.95Z"/>
        <path class="cls-3" d="M482.57,83.89h-14.31v-7.75c4.41-1.21,8.66-2.7,12-4.21,1.36-.65,2.17-1.88,2.17-3.29,0-1.85-1.4-3.84-3.65-3.84-.51,0-1.1.15-1.85.49-3.03,1.45-6.25,2.64-10.44,3.82-.62-.3-1.32-.47-2.01-.47-1.85,0-3.84.98-3.84,3.15v14.93c0,14.42-1.64,23.45-5.48,30.19-.06.11-.12.23-.17.34.03-.2.04-.41.04-.61,0-1.7-.94-3.53-3.02-3.53h-14.55c-1.89,0-2.21-.47-2.21-1.89v-4.87c.56.87,1.52,1.46,2.59,1.46s2.16-.63,2.93-1.73c1.15-1.63,2.17-3.31,3.09-5.07l-.22,5.6v3.09c0,2.08,1.82,3.21,3.52,3.21s3.52-1.12,3.52-3.21v-9.87c.71.65,1.35,1.33,1.89,2,.75.89,1.69,1.37,2.65,1.37,1.74,0,3.21-1.41,3.21-3.08,0-.93-.41-1.81-1.22-2.62-1.75-1.75-4.18-3.66-6.53-5.15v-2.31h5.49c1.99,0,2.89-1.7,2.89-3.27s-.91-3.27-2.89-3.27h-5.49v-3.27c.43,1.04,1.59,1.81,2.9,1.81,1.15,0,2.16-.62,2.77-1.71.91-1.71,1.75-3.87,2.57-6.63l.03-.13c.06-.27.11-.53.11-.85,0-1.84-1.59-2.83-3.08-2.83-1.39,0-2.54.86-2.94,2.19-.62,2.1-1.57,4.51-2.26,6.09l-.05.15s-.03.09-.04.13v-11.59c0-1.99-1.83-2.89-3.52-2.89s-3.52.91-3.52,2.89v11.11c-.5-2.03-1.42-4.37-2.13-5.91-.55-1.17-1.61-1.86-2.85-1.86-1.7,0-3.08,1.27-3.08,2.83,0,.36.07.72.22,1.19.55,1.41,1.3,3.72,1.75,5.36.47,1.81,1.86,2.45,3,2.45,1.3,0,2.69-.85,3.09-2.28v3.74h-5.3c-1.84,0-2.83,1.69-2.83,3.27s.99,3.27,2.89,3.27h3.77c-1.6,4.49-3.7,8.4-6.57,12.25-.13.18-.25.37-.36.57v-32.72c0-2.16-1.99-3.15-3.84-3.15s-3.84,1.08-3.84,3.15v42.34c0,5.46,2.48,7.68,8.56,7.68h15.88c1.25,0,2.09-.66,2.56-1.56-.02.17-.04.34-.04.5,0,1.94,1.6,3.4,3.71,3.4,1.6,0,2.94-.85,3.78-2.4,3.87-7.12,5.88-16.73,6.16-29.35h3.86v28.42c0,2.29,1.99,3.33,3.84,3.33s3.78-1.15,3.78-3.33v-28.42h2.9c2.02,0,3.08-1.74,3.08-3.46s-1.06-3.4-3.08-3.4Z"/>
      </g>
      <g>
        <path class="cls-2" d="M47.94,108.6c-.31,0-.69,0-1.02.09-5.28.94-10.27,1.36-16.18,1.36-4.93,0-4.93-.48-4.93-3.16v-15.88l16.14-2.87c-1.47,2.35-3.43,4.62-5.61,6.5-1.33,1.09-2.06,2.53-2.06,4.06,0,2.62,2.3,4.84,5.03,4.84,1.26,0,2.54-.51,3.62-1.43,3.61-3.1,7.09-7.63,9.56-12.44.85-1.69,1.29-3.38,1.29-4.89,0-4.14-3.06-6.92-7.61-6.92-.71,0-1.43.07-2.22.21l-18.14,3.21v-12.26c0-2.69-2.17-4.65-5.15-4.65s-5.15,1.96-5.15,4.65v14.05l-10.92,1.92c-2.69.46-3.89,2.66-3.89,4.63,0,2.44,1.74,4.96,4.65,4.96.28,0,.6,0,1-.09l9.16-1.63v15.22c0,8.64,4.15,11.71,15.86,11.71,6.64,0,11.71-.4,16.96-1.35,2.94-.53,4.26-2.87,4.26-4.94,0-2.79-2-4.9-4.65-4.9Z"/>
        <path class="cls-2" d="M117.47,89.01c-.24,0-.59,0-.96.1l-16.91,2.83-1.05-5.91,12.77-1.97c2.32-.33,3.87-2.14,3.87-4.51s-1.76-5.03-4.71-5.03c-.22,0-.53,0-.89.1l-12.69,1.96-1.57-8.82c-.4-2.33-2.39-3.89-4.94-3.89s-5.22,1.58-5.22,4.52c0,.24,0,.6.1.97l1.55,8.74-12.45,1.91c-2.36.33-3.88,2.12-3.88,4.57s1.72,5.03,4.59,5.03c.22,0,.53,0,.89-.1l12.56-1.96,1.06,6.01-16.98,2.84c-2.29.41-3.82,2.24-3.82,4.56,0,2.47,1.74,5.03,4.65,5.03.22,0,.54,0,.9-.1l16.91-2.83,2.76,15.35c.4,2.37,2.38,3.96,4.94,3.96s5.15-1.72,5.15-4.59c0-.24,0-.6-.1-.97l-2.74-15.44,17.04-2.84c2.28-.41,3.82-2.24,3.82-4.56,0-2.44-1.74-4.96-4.65-4.96Z"/>
        <path class="cls-2" d="M174.55,108.73h-5.55l.75-16.71v-.76c0-5.76-3.11-8.56-9.5-8.56h-18.77c-2.51,0-4.4,1.97-4.4,4.59,0,2.22,1.54,4.59,4.4,4.59h17.83c.58,0,.86.05.99.08.02.08.03.24.03.5v.24s-.75,16.02-.75,16.02h-23.77c-2.51,0-4.4,1.97-4.4,4.59,0,2.22,1.54,4.59,4.4,4.59h38.75c2.86,0,4.4-2.36,4.4-4.59,0-2.66-1.85-4.59-4.4-4.59Z"/>
        <g>
          <path class="cls-2" d="M207.7,96.68v-24.76c0-3.14-2.72-4.84-5.28-4.84s-5.28,1.7-5.28,4.84v24.76c0,3.1,2.72,4.78,5.28,4.78s5.28-1.67,5.28-4.78Z"/>
          <path class="cls-2" d="M226.68,66.13c-3.1,0-5.34,1.98-5.34,4.71v18.21c0,12.25-4.01,19.22-13.85,24.05-2.01,1-3.16,2.69-3.16,4.62,0,2.83,2.39,5.22,5.22,5.22.75,0,1.57-.21,2.54-.65,13.34-6.36,19.82-17.06,19.82-32.73v-18.71c0-3.06-2.69-4.71-5.22-4.71Z"/>
        </g>
        <g>
          <path class="cls-2" d="M295.92,83.65h-45.05c-2.44,0-4.21,2.04-4.21,4.84,0,2.4,1.45,4.84,4.21,4.84h17.66c-1.14,8.32-4.7,14-11.41,18.28-1.67,1.06-2.58,2.61-2.58,4.35,0,2.83,2.33,5.22,5.09,5.22.87,0,1.74-.25,2.73-.78,9.36-5.66,15.2-15.23,16.53-27.07h17.04c2.77,0,4.27-2.49,4.27-4.84,0-2.8-1.8-4.84-4.27-4.84Z"/>
          <path class="cls-2" d="M258.62,78.59h29.36c2.48,0,4.27-2.06,4.27-4.9s-1.8-4.9-4.27-4.9h-29.36c-2.44,0-4.21,2.06-4.21,4.9s1.77,4.9,4.21,4.9Z"/>
        </g>
        <path class="cls-2" d="M337.89,77.59c-1.51,0-2.86.73-3.68,1.95-5.6,7.84-15.01,15.78-24.55,20.71-1.69.88-2.69,2.46-2.69,4.23,0,2.55,2.1,4.71,4.59,4.71.86,0,1.68-.21,2.39-.61,3.52-1.81,7.09-4.03,10.48-6.5v16.78c0,2.44,2.01,4.21,4.78,4.21,2.34,0,4.71-1.45,4.71-4.21v-20.68c0-1.13-.45-2.14-1.21-2.88,3.61-3.36,6.71-6.82,9.26-10.31.59-.84.9-1.77.9-2.69,0-2.51-2.32-4.71-4.97-4.71Z"/>
        <g>
          <path class="cls-2" d="M361.94,92.78c-1.9,0-2.89,1.74-2.89,3.46s1.01,3.46,2.89,3.46h13.1c1.94,0,2.96-1.74,2.96-3.46s-.93-3.46-2.96-3.46h-13.1Z"/>
          <path class="cls-2" d="M361.94,72.86h13.1c1.94,0,2.96-1.74,2.96-3.46s-.93-3.46-2.96-3.46h-13.1c-1.9,0-2.89,1.74-2.89,3.46s1.01,3.46,2.89,3.46Z"/>
          <path class="cls-2" d="M381.09,78.41c0-1.81-1.06-3.65-3.08-3.65h-19.66c-1.98,0-3.02,1.84-3.02,3.65s1.04,3.65,3.02,3.65h19.66c2.02,0,3.08-1.84,3.08-3.65Z"/>
          <path class="cls-2" d="M375.04,83.96h-13.1c-1.9,0-2.89,1.74-2.89,3.46s1.01,3.46,2.89,3.46h13.1c1.94,0,2.96-1.74,2.96-3.46s-.93-3.46-2.96-3.46Z"/>
          <path class="cls-2" d="M386.32,99.89c.57,0,1.13-.13,1.8-.43,5.04-2.49,10.05-6.18,13.74-10.11.68-.68,1.03-1.48,1.03-2.37,0-1.88-1.8-3.59-3.78-3.59-.96,0-1.85.44-2.65,1.31-2.67,3.17-6.75,6.28-11.5,8.76-1.32.66-2.04,1.73-2.04,3.03,0,1.64,1.37,3.4,3.4,3.4Z"/>
          <path class="cls-2" d="M414.74,83.88s0,0,0,0c-5.14-4.09-10.23-9.77-14-15.61.09-.29.14-.59.14-.88,0-2.14-2.03-3.46-3.9-3.46-1.55,0-2.84.84-3.54,2.31-3.14,6.8-7.97,13.42-12.92,17.73-1.02.89-1.56,1.96-1.56,3.08,0,1.91,1.7,3.52,3.71,3.52,1.04,0,2.08-.43,2.91-1.2,4.14-3.67,8.19-8.61,11.46-13.98,3.32,5.1,7.77,10.32,12.31,14.41.94.87,1.99,1.33,3.05,1.33,2.15,0,3.97-1.84,3.97-4.03,0-1.24-.56-2.35-1.63-3.22Z"/>
          <path class="cls-2" d="M386.32,110.66c.41,0,.84-.07,1.36-.22,6.91-2.41,14.36-6.85,19.47-11.58.77-.77,1.15-1.58,1.15-2.43,0-1.91-1.8-3.65-3.78-3.65-.91,0-1.77.37-2.43,1.02-3.94,3.82-10.52,7.79-16.76,10.09-1.78.62-2.42,2.11-2.42,3.31,0,1.7,1.27,3.46,3.4,3.46Z"/>
          <path class="cls-2" d="M372.02,101.6h-6.49c-4.81,0-6.86,1.88-6.86,6.3v7.62c0,4.41,2.05,6.3,6.86,6.3h6.49c4.88,0,6.86-1.82,6.86-6.3v-7.62c0-4.41-2.05-6.3-6.86-6.3ZM371.58,109.22v4.98c0,.86-.16.95-.82.95h-3.97c-.72,0-.82-.12-.82-.95v-4.98c0-.86.16-.95.82-.95h3.97c.67,0,.82.09.82.95Z"/>
          <path class="cls-2" d="M410.07,102.61c-.83,0-1.64.31-2.39.93-5.59,4.52-14.87,8.91-23.63,11.18-1.85.51-2.95,1.82-2.95,3.51,0,1.79,1.34,3.65,3.59,3.65.31,0,.66-.07,1-.14,9.71-2.43,19.92-7.24,26.64-12.56.98-.72,1.53-1.71,1.53-2.8,0-2.01-1.76-3.78-3.78-3.78Z"/>
        </g>
        <path class="cls-2" d="M482.57,83.89h-14.31v-7.75c4.41-1.21,8.66-2.7,12-4.21,1.36-.65,2.17-1.88,2.17-3.29,0-1.85-1.4-3.84-3.65-3.84-.51,0-1.1.15-1.85.49-3.03,1.45-6.25,2.64-10.44,3.82-.62-.3-1.32-.47-2.01-.47-1.85,0-3.84.98-3.84,3.15v14.93c0,14.42-1.64,23.45-5.48,30.19-.06.11-.12.23-.17.34.03-.2.04-.41.04-.61,0-1.7-.94-3.53-3.02-3.53h-14.55c-1.89,0-2.21-.47-2.21-1.89v-4.87c.56.87,1.52,1.46,2.59,1.46s2.16-.63,2.93-1.73c1.15-1.63,2.17-3.31,3.09-5.07l-.22,5.6v3.09c0,2.08,1.82,3.21,3.52,3.21s3.52-1.12,3.52-3.21v-9.87c.71.65,1.35,1.33,1.89,2,.75.89,1.69,1.37,2.65,1.37,1.74,0,3.21-1.41,3.21-3.08,0-.93-.41-1.81-1.22-2.62-1.75-1.75-4.18-3.66-6.53-5.15v-2.31h5.49c1.99,0,2.89-1.7,2.89-3.27s-.91-3.27-2.89-3.27h-5.49v-3.27c.43,1.04,1.59,1.81,2.9,1.81,1.15,0,2.16-.62,2.77-1.71.91-1.71,1.75-3.87,2.57-6.63l.03-.13c.06-.27.11-.53.11-.85,0-1.84-1.59-2.83-3.08-2.83-1.39,0-2.54.86-2.94,2.19-.62,2.1-1.57,4.51-2.26,6.09l-.05.15s-.03.09-.04.13v-11.59c0-1.99-1.83-2.89-3.52-2.89s-3.52.91-3.52,2.89v11.11c-.5-2.03-1.42-4.37-2.13-5.91-.55-1.17-1.61-1.86-2.85-1.86-1.7,0-3.08,1.27-3.08,2.83,0,.36.07.72.22,1.19.55,1.41,1.3,3.72,1.75,5.36.47,1.81,1.86,2.45,3,2.45,1.3,0,2.69-.85,3.09-2.28v3.74h-5.3c-1.84,0-2.83,1.69-2.83,3.27s.99,3.27,2.89,3.27h3.77c-1.6,4.49-3.7,8.4-6.57,12.25-.13.18-.25.37-.36.57v-32.72c0-2.16-1.99-3.15-3.84-3.15s-3.84,1.08-3.84,3.15v42.34c0,5.46,2.48,7.68,8.56,7.68h15.88c1.25,0,2.09-.66,2.56-1.56-.02.17-.04.34-.04.5,0,1.94,1.6,3.4,3.71,3.4,1.6,0,2.94-.85,3.78-2.4,3.87-7.12,5.88-16.73,6.16-29.35h3.86v28.42c0,2.29,1.99,3.33,3.84,3.33s3.78-1.15,3.78-3.33v-28.42h2.9c2.02,0,3.08-1.74,3.08-3.46s-1.06-3.4-3.08-3.4Z"/>
      </g>
    </g>
  </g>
</svg>